<?xml version="1.0" encoding="UTF-8"?>
<svg version="1.1" xmlns="http://www.w3.org/2000/svg" width="512" height="512">
<path d="M0 0 C11.79235729 8.82671981 20.53368358 21.28462943 23 36 C24.79793377 53.61645202 22.0053652 68.20652502 12 83 C8.47515181 87.18846248 4.64888334 91.02914731 0.76094055 94.87397766 C-0.37604933 96.01674077 -1.51194893 97.1605895 -2.64686137 98.30541581 C-5.74358991 101.42287555 -8.8555455 104.5247207 -11.97041595 107.62403929 C-15.33675784 110.97901514 -18.68861401 114.34841253 -22.04240417 117.71592712 C-28.60488863 124.30059255 -35.18075548 130.87173251 -41.76159181 137.43805156 C-47.11186402 142.77701129 -52.45721098 148.12085628 -57.79911232 153.46819115 C-58.56069892 154.23054391 -59.32228552 154.99289667 -60.1069505 155.77835103 C-61.65429413 157.32729337 -63.20162658 158.87624688 -64.74894796 160.42521145 C-79.24353438 174.93404033 -93.75337952 189.42753135 -108.26852576 203.91578742 C-120.71074668 216.33567099 -133.13980028 228.76860514 -145.55932617 241.21118164 C-159.99733633 255.67597632 -174.4434577 270.1325905 -188.90253478 284.57632893 C-190.44563658 286.11783806 -191.98872798 287.6593576 -193.53180885 289.20088768 C-194.29094983 289.95925728 -195.0500908 290.71762687 -195.83223605 291.49897737 C-201.16981673 296.83224902 -206.50159014 302.17128383 -211.83112144 307.51259804 C-218.33016125 314.02569081 -224.83809561 320.5297383 -231.35743823 327.0225111 C-234.68063489 330.33260746 -237.99978326 333.64650118 -241.30812836 336.97144699 C-244.34170019 340.02000949 -247.38674127 343.05662125 -250.44101141 346.08444228 C-251.53888211 347.17676655 -252.63264302 348.27324202 -253.7216216 349.37443141 C-266.81104083 362.5992091 -280.82661263 370.30254168 -299.6875 370.4375 C-306.82090603 370.33703939 -313.3288355 369.70146074 -320 367 C-320.94746094 366.62101562 -321.89492188 366.24203125 -322.87109375 365.8515625 C-328.53847962 363.30160735 -333.35790517 360.13405484 -338.05740356 356.0894928 C-338.61796137 355.610343 -339.17851918 355.1311932 -339.75606358 354.63752371 C-346.1896924 349.06856501 -352.1996697 343.08899882 -358.20654297 337.06811523 C-359.46762253 335.81139644 -360.72911485 334.55509173 -361.99098206 333.29916382 C-365.37753072 329.925862 -368.75779706 326.54633424 -372.13645315 323.16512942 C-374.97023401 320.33027019 -377.80700525 317.49841234 -380.6437093 314.66647869 C-387.33739692 307.9838342 -394.02580756 301.29594083 -400.7109375 294.60473633 C-407.58637576 287.7232466 -414.470971 280.85101581 -421.36005485 273.98318905 C-427.3004192 268.06047502 -433.23492324 262.13193306 -439.16484368 256.19876248 C-442.69554267 252.6662578 -446.22838724 249.13597166 -449.76696396 245.61135674 C-453.09147848 242.29947391 -456.4085738 238.98033075 -459.72027397 235.65563583 C-460.93059963 234.44295742 -462.14344463 233.23278694 -463.35909081 232.02544212 C-471.40926734 224.02625561 -479.19320363 215.91940091 -483.8125 205.375 C-484.19019531 204.53710938 -484.56789063 203.69921875 -484.95703125 202.8359375 C-490.10760563 188.83100493 -490.16082561 171.66016393 -484 158 C-477.58179739 144.30899714 -467.10590743 133.36353777 -452.91796875 127.7890625 C-436.57659832 122.10685971 -421.11190016 122.72027487 -405.0703125 129.1796875 C-389.31871293 136.89568845 -376.57066114 153.29533837 -364.35546875 165.546875 C-362.49096812 167.41324474 -360.62624359 169.27939083 -358.76130676 171.14532471 C-354.38938792 175.52032335 -350.02001914 179.89785923 -345.65161449 184.27636647 C-340.66914562 189.27010198 -335.68375871 194.26092013 -330.6981529 199.25152349 C-320.46223883 209.49782587 -310.22997331 219.7477664 -300 230 C-294.28841178 225.25327261 -289.03603578 220.1646821 -283.80426025 214.89759827 C-282.44710769 213.53749395 -282.44710769 213.53749395 -281.06253791 212.14991277 C-279.08561613 210.16863768 -277.1103138 208.18576703 -275.13626099 206.20163345 C-271.92329489 202.97226603 -268.70681299 199.74641454 -265.4899292 196.52095032 C-260.81944334 191.83736815 -256.15058299 187.15217079 -251.48261261 182.46608162 C-244.09857163 175.05377047 -236.70870364 167.64728352 -229.31781006 160.24180603 C-226.7860745 157.70494662 -224.25436407 155.16806213 -221.72265244 152.63117886 C-221.09002458 151.99726497 -220.45739673 151.36335108 -219.80559833 150.71022769 C-212.61211782 143.50202796 -205.41952103 136.29294685 -198.22753906 129.08325195 C-197.57046651 128.42456466 -196.91339395 127.76587736 -196.23641011 127.08722984 C-185.5896255 116.41391195 -174.94847066 105.73499581 -164.30893162 95.05445594 C-153.37184861 84.07558643 -142.4270756 73.10442354 -131.47559714 62.1399135 C-124.72835852 55.38409611 -117.98738391 48.62214971 -111.25441882 41.85210644 C-106.63715951 37.21050408 -102.01256833 32.5762908 -97.38222912 27.94773681 C-94.71447354 25.2805569 -92.05003682 22.6102753 -89.39439392 19.93103027 C-86.50834644 17.01949344 -83.60681267 14.12388089 -80.70367432 11.22938538 C-79.87669989 10.39007746 -79.04972546 9.55076955 -78.1976912 8.68602806 C-56.76977583 -12.54282067 -25.58488016 -17.01851404 0 0 Z " fill="#34D97D" transform="translate(489,76)"/>
</svg>
