<?xml version="1.0" encoding="UTF-8"?>
<svg version="1.1" xmlns="http://www.w3.org/2000/svg" width="512" height="512">
<path d="M0 0 C6.85386237 5.45483875 10.82492756 12.3023269 14.875 19.9375 C16.10146106 22.18826536 17.32932849 24.43826494 18.55859375 26.6875 C19.14882324 27.77546875 19.73905273 28.8634375 20.34716797 29.984375 C22.46602159 33.85026569 24.67919384 37.65189457 26.9375 41.4375 C31.07482223 48.40670793 35.1412259 55.41503655 39.1875 62.4375 C39.82550537 63.54472412 40.46351074 64.65194824 41.12084961 65.79272461 C42.42889477 68.06337068 43.73675448 70.33412358 45.04443359 72.60498047 C48.19332054 78.0716998 51.34683264 83.53574887 54.5 89 C55.7500235 91.16665311 57.00002347 93.33331979 58.25 95.5 C58.86875 96.5725 59.4875 97.645 60.125 98.75 C110.75 186.5 110.75 186.5 112.62524414 189.75048828 C113.87435518 191.91557071 115.12354129 194.08060982 116.37280273 196.24560547 C119.51202309 201.68615706 122.64990563 207.12747216 125.78515625 212.5703125 C131.80747329 223.02206199 137.84669337 233.46299548 143.9375 243.875 C149.35921178 253.14499777 154.70204915 262.45831752 160.01922607 271.78845215 C165.21752585 280.90769639 170.47399043 289.99132479 175.7746582 299.05151367 C180.74503404 307.5502558 185.68233794 316.06783216 190.57714844 324.61035156 C193.43438672 329.59131466 196.31481721 334.54821412 199.3203125 339.44140625 C205.4770307 349.52881705 210.1989762 357.97727546 208.5 370.1875 C206.59411786 377.73819231 202.30197257 383.65379817 195.90625 388.02734375 C190.93308998 390.56487827 186.47678235 391.25091218 180.930583 391.25726891 C180.23918821 391.26077498 179.54779343 391.26428105 178.83544728 391.26789337 C176.51946462 391.27719474 174.20373412 391.27228739 171.88774109 391.26742554 C170.21018116 391.27116243 168.53262297 391.27576411 166.85506755 391.28115618 C162.24553867 391.29339668 157.63608231 391.29312448 153.02654088 391.29076743 C148.05504621 391.29035953 143.08357488 391.30139582 138.11209106 391.31088257 C128.37220623 391.32749915 118.63234561 391.33299241 108.89244779 391.33410732 C100.97599717 391.33505746 93.05955455 391.33916602 85.14310646 391.34550858 C62.7017682 391.36312255 40.26044908 391.37234717 17.81910386 391.37084763 C16.00417845 391.37072776 16.00417845 391.37072776 14.15258789 391.37060547 C12.94116148 391.37052371 11.72973507 391.37044195 10.48159877 391.37035771 C-9.15404676 391.3695447 -28.7896156 391.38868575 -48.42523894 391.4168822 C-68.58376904 391.44560129 -88.74226173 391.45942304 -108.9008128 391.45769465 C-120.21960163 391.45703043 -131.53831005 391.46253698 -142.85708046 391.48405075 C-152.49364662 391.50224966 -162.13009592 391.50662044 -171.76667181 391.4930319 C-176.68323223 391.48649585 -181.59956839 391.48640814 -186.51610756 391.5037384 C-191.01855553 391.51944582 -195.52060099 391.51662933 -200.02303901 391.49917014 C-201.65019789 391.49609512 -203.27738664 391.49975156 -204.9045103 391.51089029 C-214.9195613 391.57489898 -222.23019702 390.67169281 -230.75 385.25 C-237.09997567 378.90002433 -239.50848751 372.20864902 -239.57836914 363.28637695 C-239.28956117 354.72706797 -235.21361194 348.20832726 -231 341 C-229.88396864 339.04118889 -228.76949248 337.0814912 -227.65625 335.12109375 C-224.46602296 329.53189121 -221.23214593 323.96904941 -217.98779297 318.41113281 C-214.80633648 312.95162531 -211.65422297 307.47527059 -208.5 302 C-207.25015042 299.83324656 -206.00015017 297.66658002 -204.75 295.5 C-203.821875 293.89125 -203.821875 293.89125 -202.875 292.25 C-166 228.33333333 -129.125 164.41666667 -92.25 100.5 C-91.63116943 99.42733887 -91.01233887 98.35467773 -90.37475586 97.24951172 C-89.12564482 95.08442929 -87.87645871 92.91939018 -86.62719727 90.75439453 C-83.48797691 85.31384294 -80.35009437 79.87252784 -77.21484375 74.4296875 C-70.5793358 62.91329011 -63.93566816 51.40191171 -57.21435547 39.93530273 C-54.19348807 34.77961481 -51.20359118 29.60917311 -48.2578125 24.41015625 C-47.63914307 23.32686035 -47.02047363 22.24356445 -46.38305664 21.12744141 C-45.20648264 19.06587296 -44.0383848 16.99943346 -42.88061523 14.92724609 C-38.0345273 6.47441194 -33.0817819 -0.04637633 -23.671875 -3.33984375 C-15.18359875 -5.43709329 -7.57644599 -4.28767088 0 0 Z M-16 78 C-16.37584229 78.65145996 -16.75168457 79.30291992 -17.13891602 79.97412109 C-38.00927734 116.14941406 -58.87963867 152.32470703 -79.75 188.5 C-80.36883057 189.57266113 -80.98766113 190.64532227 -81.62524414 191.75048828 C-82.87435518 193.91557071 -84.12354129 196.08060982 -85.37280273 198.24560547 C-88.51202309 203.68615706 -91.64990563 209.12747216 -94.78515625 214.5703125 C-100.80747329 225.02206199 -106.84669337 235.46299548 -112.9375 245.875 C-118.01275123 254.55262241 -123.02258767 263.26605568 -128 272 C-132.97741357 280.73394649 -137.98745117 289.44725745 -143.0625 298.125 C-147.84079418 306.29730672 -152.61041071 314.47442635 -157.3510437 322.66864014 C-158.35890101 324.40968938 -159.36900774 326.14943585 -160.37915039 327.88916016 C-160.98364014 328.93507324 -161.58812988 329.98098633 -162.2109375 331.05859375 C-163.01990479 332.45549438 -163.01990479 332.45549438 -163.84521484 333.88061523 C-165.07974253 335.74409031 -165.07974253 335.74409031 -165 337 C-66.33 337 32.34 337 134 337 C130.04555433 329.09110867 126.05605359 321.45419176 121.5625 313.875 C120.32231764 311.76597714 119.08275562 309.65658939 117.84375 307.546875 C117.20953125 306.46857422 116.5753125 305.39027344 115.921875 304.27929688 C112.77515892 298.91005267 109.66841381 293.51791809 106.5625 288.125 C105.94060791 287.04589355 105.31871582 285.96678711 104.67797852 284.85498047 C103.41550269 282.66417049 102.15321444 280.4732524 100.89111328 278.28222656 C97.76319852 272.85340058 94.63141552 267.42680719 91.5 262 C90.24998121 259.83334417 88.99998122 257.6666775 87.75 255.5 C87.13125 254.4275 86.5125 253.355 85.875 252.25 C65.25 216.5 65.25 216.5 63.37475586 213.24951172 C62.12564482 211.08442929 60.87645871 208.91939018 59.62719727 206.75439453 C56.48797691 201.31384294 53.35009437 195.87252784 50.21484375 190.4296875 C44.19252671 179.97793801 38.15330663 169.53700452 32.0625 159.125 C26.98724761 150.44737561 21.97754371 141.73387074 17 133 C10.27007443 121.19240604 3.4600201 109.43353106 -3.41455078 97.70947266 C-4.96877355 95.05336482 -6.51475529 92.39262299 -8.05859375 89.73046875 C-8.97649478 88.15360641 -9.89445931 86.57678103 -10.8125 85 C-11.22741699 84.28110596 -11.64233398 83.56221191 -12.06982422 82.8215332 C-13.01852797 81.19765707 -14.00479345 79.59579962 -15 78 C-15.33 78 -15.66 78 -16 78 Z " fill="#F3852D" transform="translate(272,42)"/>
<path d="M0 0 C17.82 0 35.64 0 54 0 C54.33 46.2 54.66 92.4 55 140 C36.85 140 18.7 140 0 140 C0 93.8 0 47.6 0 0 Z " fill="#F37227" transform="translate(229,171)"/>
<path d="M0 0 C5.11725159 3.77701903 8.57714422 7.4666486 10.1875 13.75 C10.99551777 19.2798716 10.21662151 23.97664035 7.625 28.9375 C3.90504314 33.36123248 -0.60797568 36.54510163 -6.4375 37.15234375 C-11.75195221 37.37677163 -15.69735919 36.67347859 -20.375 33.9375 C-25.38230337 29.26478603 -28.13067617 24.96711554 -28.6875 18.0625 C-28.51975329 12.49540616 -26.6358023 8.39737634 -23 4.1875 C-15.95728562 -1.84911232 -8.88808348 -2.79810035 0 0 Z " fill="#F49B33" transform="translate(265.375,334.0625)"/>
</svg>
