<?xml version="1.0"?><!DOCTYPE svg  PUBLIC '-//W3C//DTD SVG 1.1//EN'  'http://www.w3.org/Graphics/SVG/1.1/DTD/svg11.dtd'><svg xmlns="http://www.w3.org/2000/svg" xmlns:xlink="http://www.w3.org/1999/xlink" version="1.1" id="Layer_1" width="512px" height="512px" viewBox="0 0 512 512" enable-background="new 0 0 512 512" xml:space="preserve"><g><linearGradient id="SVGID_1_" gradientUnits="userSpaceOnUse" x1="419.7637" y1="5.6816" x2="419.7636" y2="509.7324"><stop offset="0" style="stop-color:#00FFED"/><stop offset="0.9901" style="stop-color:#9D00C6"/></linearGradient><path fill="url(#SVGID_1_)" d="M419.756,171.473c43.688,0,79.236-35.543,79.236-79.231S463.443,13.01,419.756,13.01   c-43.684,0-79.222,35.543-79.222,79.231S376.072,171.473,419.756,171.473z M419.756,26.504c36.25,0,65.736,29.493,65.736,65.737   c0,36.24-29.486,65.732-65.736,65.732c-36.24,0-65.728-29.493-65.728-65.732C354.028,55.997,383.516,26.504,419.756,26.504z"/><linearGradient id="SVGID_2_" gradientUnits="userSpaceOnUse" x1="419.7559" y1="5.6816" x2="419.7558" y2="509.7324"><stop offset="0" style="stop-color:#00FFED"/><stop offset="0.9901" style="stop-color:#9D00C6"/></linearGradient><path fill="url(#SVGID_2_)" d="M419.756,120.399c-8.938,0-16.775-5.009-16.775-10.708c0-3.722-3.02-6.747-6.747-6.747   c-3.727,0-6.752,3.025-6.752,6.747c0,11.708,9.905,21.214,23.526,23.606v8.055c0,3.727,3.021,6.747,6.748,6.747   c3.727,0,6.752-3.02,6.752-6.747v-8.055c13.616-2.398,23.521-11.899,23.521-23.606c0-18.981-17.514-22.065-29.104-24.102   c-13.903-2.44-17.944-4.152-17.944-10.798c0-5.71,7.837-10.708,16.775-10.708c8.938,0,16.779,4.998,16.779,10.708   c0,3.722,3.02,6.747,6.747,6.747s6.747-3.025,6.747-6.747c0-11.708-9.905-21.214-23.521-23.607v-8.06   c0-3.722-3.025-6.747-6.752-6.747c-3.728,0-6.748,3.025-6.748,6.747v8.06c-13.621,2.393-23.526,11.899-23.526,23.607   c0,18.981,17.519,22.06,29.109,24.096c13.898,2.446,17.944,4.158,17.944,10.804C436.535,115.391,428.693,120.399,419.756,120.399z"/><linearGradient id="SVGID_3_" gradientUnits="userSpaceOnUse" x1="452.1748" y1="5.6816" x2="452.1748" y2="509.7324"><stop offset="0" style="stop-color:#00FFED"/><stop offset="0.9901" style="stop-color:#9D00C6"/></linearGradient><path fill="url(#SVGID_3_)" d="M481.191,199.322h-58.028c-9.814,0-17.806,7.986-17.806,17.801v264.066   c0,9.815,7.991,17.801,17.806,17.801h58.028c9.814,0,17.801-7.986,17.801-17.801V217.123   C498.992,207.309,491.006,199.322,481.191,199.322z M485.492,481.189c0,2.371-1.93,4.301-4.301,4.301h-58.028   c-2.37,0-4.307-1.93-4.307-4.301V217.123c0-2.371,1.937-4.296,4.307-4.296h58.028c2.371,0,4.301,1.925,4.301,4.296V481.189z"/><linearGradient id="SVGID_4_" gradientUnits="userSpaceOnUse" x1="321.3906" y1="5.6816" x2="321.3906" y2="509.7324"><stop offset="0" style="stop-color:#00FFED"/><stop offset="0.9901" style="stop-color:#9D00C6"/></linearGradient><path fill="url(#SVGID_4_)" d="M350.402,273.014h-58.018c-9.82,0-17.806,7.981-17.806,17.791v190.385   c0,9.815,7.985,17.801,17.806,17.801h58.018c9.814,0,17.801-7.986,17.801-17.801V290.804   C368.203,280.995,360.217,273.014,350.402,273.014z M354.704,481.189c0,2.371-1.931,4.307-4.302,4.307h-58.018   c-2.376,0-4.312-1.936-4.312-4.307V290.804c0-2.366,1.936-4.296,4.312-4.296h58.018c2.371,0,4.302,1.93,4.302,4.296V481.189z"/><linearGradient id="SVGID_5_" gradientUnits="userSpaceOnUse" x1="190.6016" y1="5.6816" x2="190.6015" y2="509.7324"><stop offset="0" style="stop-color:#00FFED"/><stop offset="0.9901" style="stop-color:#9D00C6"/></linearGradient><path fill="url(#SVGID_5_)" d="M219.619,346.684h-58.033c-9.811,0-17.796,7.986-17.796,17.801v116.705   c0,9.815,7.985,17.801,17.796,17.801h58.033c9.81,0,17.795-7.986,17.795-17.801V364.485   C237.414,354.67,229.429,346.684,219.619,346.684z M223.92,481.189c0,2.371-1.936,4.301-4.301,4.301h-58.033   c-2.366,0-4.297-1.93-4.297-4.301V364.485c0-2.372,1.931-4.301,4.297-4.301h58.033c2.365,0,4.301,1.93,4.301,4.301V481.189z"/><linearGradient id="SVGID_6_" gradientUnits="userSpaceOnUse" x1="59.8242" y1="5.6816" x2="59.8242" y2="509.7325"><stop offset="0" style="stop-color:#00FFED"/><stop offset="0.9901" style="stop-color:#9D00C6"/></linearGradient><path fill="url(#SVGID_6_)" d="M88.836,420.37H30.807c-9.809,0-17.795,7.986-17.795,17.806v43.013   c0,9.815,7.986,17.801,17.795,17.801h58.029c9.814,0,17.8-7.986,17.8-17.801v-43.013C106.636,428.356,98.65,420.37,88.836,420.37z    M93.137,481.189c0,2.371-1.93,4.301-4.301,4.301H30.807c-2.365,0-4.301-1.93-4.301-4.301v-43.013c0-2.376,1.936-4.307,4.301-4.307   h58.029c2.371,0,4.301,1.93,4.301,4.307V481.189z"/><linearGradient id="SVGID_7_" gradientUnits="userSpaceOnUse" x1="164.5313" y1="5.6816" x2="164.5312" y2="509.7324"><stop offset="0" style="stop-color:#00FFED"/><stop offset="0.9901" style="stop-color:#9D00C6"/></linearGradient><path fill="url(#SVGID_7_)" d="M19.77,226.789c1.122,0,2.254-0.287,3.302-0.872l121.261-68.322l31.886,58.012   c0.866,1.579,2.334,2.749,4.067,3.238c1.728,0.511,3.589,0.277,5.157-0.606l109.006-61.415l-11.325,24.516   c-1.563,3.387-0.085,7.396,3.302,8.964c0.915,0.42,1.872,0.622,2.823,0.622c2.553,0,4.992-1.457,6.131-3.924l20.081-43.481   c0.112-0.245,0.165-0.505,0.245-0.761c0.048-0.148,0.105-0.287,0.144-0.441c0.181-0.729,0.244-1.473,0.181-2.217   c-0.016-0.149-0.054-0.292-0.074-0.447c-0.117-0.755-0.336-1.489-0.707-2.18c-0.017-0.032-0.017-0.064-0.032-0.096   c-0.006-0.011-0.017-0.011-0.021-0.021c-0.005-0.016-0.005-0.032-0.016-0.042c-0.399-0.691-0.941-1.26-1.542-1.765   c-0.117-0.096-0.229-0.197-0.356-0.287c-0.611-0.447-1.281-0.787-2.015-1.01c-0.117-0.037-0.234-0.048-0.362-0.074   c-0.313-0.08-0.627-0.181-0.957-0.213l-47.697-4.338c-3.7-0.367-6.991,2.393-7.331,6.109c-0.336,3.711,2.397,6.992,6.108,7.332   l26.111,2.382l-102.376,57.677l-31.885-58.012c-0.872-1.579-2.334-2.749-4.068-3.238c-1.723-0.5-3.588-0.271-5.156,0.611   L16.446,214.156c-3.249,1.829-4.397,5.944-2.567,9.188C15.117,225.545,17.408,226.789,19.77,226.789z"/></g></svg>