<?xml version="1.0" encoding="iso-8859-1"?>
<!-- Uploaded to: SVG Repo, www.svgrepo.com, Generator: SVG Repo Mixer Tools -->
<svg version="1.1" id="Layer_1" xmlns="http://www.w3.org/2000/svg" xmlns:xlink="http://www.w3.org/1999/xlink" 
	 viewBox="0 0 490 490" xml:space="preserve">
<g id="XMLID_1510_">
	<g id="XMLID_1559_">
		<polygon style="fill:#E9483D;" points="454.523,482.367 211.58,482.368 211.078,30.821 248.453,9.17 278.982,32.067 324.775,9.17 
			454.523,100.757 		"/>
	</g>
	<g id="XMLID_1558_">
		<polygon style="fill:#ED6D64;" points="301.879,482.367 34.752,482.367 34.752,100.757 164.499,9.17 301.879,100.757 		"/>
	</g>
	<g id="XMLID_1555_">
		<polygon style="fill:#FFFFFF;" points="57.646,482.368 34.752,482.367 34.752,100.757 57.646,83.428 		"/>
	</g>
	<g id="XMLID_1554_">
		<rect x="301.879" y="428.941" style="fill:#F7931E;" width="30.529" height="53.425"/>
	</g>
	<g id="XMLID_1553_">
		<rect x="378.868" y="428.941" style="fill:#F7931E;" width="30.529" height="53.425"/>
	</g>
	<g id="XMLID_1552_">
		<circle style="fill:#E9483D;" cx="167.955" cy="125.236" r="30.529"/>
	</g>
	<g id="XMLID_1551_">
		<polygon style="fill:#E9483D;" points="217.925,482.367 218.882,47.331 301.879,100.757 301.879,482.367 		"/>
	</g>
	<g id="XMLID_1550_">
		<rect x="80.545" y="428.941" style="fill:#F7931E;" width="175.541" height="53.425"/>
	</g>
	<g id="XMLID_1549_">
		<polygon style="fill:#F7931E;" points="80.545,324.101 204.472,199.975 258.639,253.943 134.513,378.069 		"/>
	</g>
	<g id="XMLID_1548_">
		<polygon style="fill:#FBB03B;" points="80.545,324.101 164.499,240.012 164.499,348.083 134.513,378.069 		"/>
	</g>
	<g id="XMLID_1547_">
		<polygon style="fill:#FFFFFF;" points="103.439,342.062 88.175,337.356 88.175,306.827 103.439,306.827 		"/>
	</g>
	<g id="XMLID_1546_">
		<rect x="80.545" y="428.941" style="fill:#FBB03B;" width="122.115" height="53.425"/>
	</g>
	<g id="XMLID_1545_">
		<rect x="85.164" y="433.564" style="fill:#FFFFFF;" width="18.275" height="44.183"/>
	</g>
	<g id="XMLID_1515_">
		<g id="XMLID_1530_">
			<rect x="81.824" y="227.964" style="fill:#1D1D1B;" width="22.897" height="15.264"/>
		</g>
		<g id="XMLID_1528_">
			<rect x="81.824" y="197.435" style="fill:#1D1D1B;" width="38.161" height="15.264"/>
		</g>
		<g id="XMLID_1519_">
			<rect x="203.94" y="350.079" style="fill:#1D1D1B;" width="53.425" height="15.264"/>
		</g>
		<path style="fill:#1D1D1B;" d="M269.432,253.942l-12.067-12.066v-13.912h-13.913L228.187,212.7h29.178v-15.264h-44.444
			l-8.251-8.251l-8.363,8.362v-0.112H135.25v15.264h45.904l-15.376,15.375v-0.111h-45.793v15.264h30.639l-15.375,15.374v-0.11
			H81.824v15.264h38.271l-15.374,15.374v-0.109H81.824v15.265h7.741L69.75,324.1l25.979,25.979H81.824v15.264h29.169l23.519,23.519
			l23.634-23.634v0.115h30.529v-15.264h-15.38l15.38-15.38v0.116h68.69V319.55h-53.541l15.264-15.264h38.276v-15.265h-23.012
			L269.432,253.942z M134.512,367.277L91.335,324.1L204.67,210.769l43.177,43.173L134.512,367.277z"/>
	</g>
	<g>
		<path style="fill:#1D1D1B;" d="M167.955,90.819c-18.976,0-34.419,15.439-34.419,34.419c0,18.976,15.443,34.416,34.419,34.416
			s34.42-15.44,34.42-34.416C202.375,106.258,186.931,90.819,167.955,90.819z M167.955,144.39c-10.561,0-19.155-8.59-19.155-19.151
			s8.594-19.155,19.155-19.155s19.155,8.594,19.155,19.155C187.11,135.799,178.516,144.39,167.955,144.39z"/>
		<path style="fill:#1D1D1B;" d="M322.477,0.294l-42.854,22.787L245.022,0.015l-38.729,25.544L167.955,0L26.402,94.367V490H72.91
			h38.161h77.045h75.599h30.529h15.264h30.529h30.529h15.987h29.806h47.239V94.367L322.477,0.294z M188.116,474.736h-77.045H88.175
			v-38.161h160.276v38.161H188.116z M263.715,474.736V421.31H72.91v53.425H41.666v-372.2l126.289-84.193l126.289,84.193V421.31
			v53.425h-30.529V474.736z M309.509,474.736v-38.161h15.264v38.161H309.509z M370.566,474.736h-30.529V421.31h-30.529V94.367
			l-89.424-59.615l24.893-16.424l126.312,84.208L370.566,474.736z M386.553,474.736v-38.161h14.542v38.161H386.553z
			 M448.334,474.736h-31.975V421.31h-29.806V94.367l-92.504-61.668l27.549-14.65l126.736,84.487V474.736z"/>
	</g>
</g>
</svg>