<?xml version="1.0" encoding="UTF-8"?>
<svg version="1.1" xmlns="http://www.w3.org/2000/svg" width="512" height="512">
<path d="M0 0 C0.75794861 0.00147034 1.51589722 0.00294067 2.29681396 0.00445557 C4.79263262 0.01728056 7.2859885 0.06792178 9.78125 0.12109375 C11.53221365 0.1419815 13.28319109 0.16174039 15.03417969 0.18041992 C64.00991786 0.83716667 112.28587923 5.79808367 159.45205688 19.63725281 C162.81159274 20.61990816 166.17914016 21.57359526 169.54693604 22.52749634 C171.1749626 22.99840931 172.79876963 23.48422214 174.41741943 23.98641968 C185.71195183 27.48941259 193.5522609 27.81153768 204.82525635 24.29672241 C209.61381933 22.85755925 214.48186186 21.71115832 219.33203125 20.5 C221.50295555 19.94685937 223.67360561 19.39264146 225.84399414 18.83740234 C267.13338082 8.31844224 267.13338082 8.31844224 287.28125 5.55859375 C288.32120117 5.41276855 289.36115234 5.26694336 290.43261719 5.11669922 C316.81012996 1.53214502 343.57438243 0.43596027 370.17443848 0.15219116 C371.90038313 0.13160187 373.626253 0.10308743 375.35192871 0.0663147 C377.75600993 0.01879243 380.15800185 0.00466446 382.5625 0 C383.2722699 -0.01943665 383.98203979 -0.03887329 384.71331787 -0.05889893 C388.46235905 -0.02504368 390.19332455 0.49336413 393.2331543 2.74853516 C395.5320733 5.90273205 395.87686631 7.23552998 395.76953125 11.078125 C395.75341797 12.09970703 395.73730469 13.12128906 395.72070312 14.17382812 C395.67880859 15.22892578 395.63691406 16.28402344 395.59375 17.37109375 C395.57119141 18.44552734 395.54863281 19.51996094 395.52539062 20.62695312 C395.46660598 23.27226225 395.38448957 25.91470788 395.28125 28.55859375 C397.01411255 28.53502808 397.01411255 28.53502808 398.78198242 28.51098633 C403.07764687 28.45659006 407.373281 28.42220842 411.66918945 28.39379883 C413.52666345 28.37873429 415.38410201 28.35827866 417.24145508 28.33227539 C419.91496539 28.29578916 422.58800444 28.27884405 425.26171875 28.265625 C426.5026252 28.24239922 426.5026252 28.24239922 427.76860046 28.21870422 C432.43269877 28.21735003 435.49638472 28.51618525 439.28125 31.55859375 C440.62639699 34.24888772 440.41173274 36.32364606 440.41826439 39.33768272 C440.4258762 41.19486382 440.4258762 41.19486382 440.43364179 43.08956373 C440.43424352 44.47616216 440.43474258 45.86276063 440.43515015 47.24935913 C440.43916326 48.71253979 440.44360123 50.17571934 440.4484297 51.63889754 C440.46041757 55.67421429 440.46604875 59.70951908 440.47061086 63.74485016 C440.47655845 68.09122506 440.48817025 72.43758558 440.49890137 76.78395081 C440.52344263 87.28674288 440.53805395 97.78953973 440.55096143 108.29235166 C440.55467176 111.25695399 440.55864511 114.22155585 440.5627141 117.1861577 C440.58794623 135.58222202 440.61000688 153.97828705 440.62244225 172.37436485 C440.6253721 176.63694639 440.62833375 180.8995279 440.63134766 185.16210938 C440.63209371 186.22159737 440.63283976 187.28108537 440.63360842 188.37267907 C440.64627086 205.54822774 440.67950505 222.72367309 440.72114949 239.89917342 C440.763521 257.51841011 440.78713164 275.13759383 440.79236281 292.75688136 C440.7957821 302.65540857 440.80759826 312.55377425 440.84046555 322.45225143 C440.86840141 330.8795151 440.87949388 339.30658414 440.86827008 347.73389052 C440.86306701 352.03622161 440.86607634 356.33814471 440.89073563 360.6404171 C440.91310571 364.57601017 440.91258493 368.51089932 440.89353175 372.44650371 C440.89071442 373.87316396 440.89642583 375.29987071 440.91134469 376.72645573 C440.93033667 378.66015557 440.91572468 380.5940993 440.89928246 382.52782249 C440.90063898 383.60362521 440.90199551 384.67942792 440.90339315 385.78783071 C440.28125 388.55859375 440.28125 388.55859375 437.97629255 390.904755 C434.36480028 393.12098192 431.19679723 393.10231582 427.08720398 393.03961182 C426.26622138 393.04302952 425.44523879 393.04644722 424.59937793 393.04996848 C421.85064518 393.05655287 419.10289071 393.03456242 416.35424805 393.01269531 C414.38309248 393.01156695 412.41193523 393.01220047 410.44078064 393.01446533 C405.0898606 393.01561386 399.7392986 392.99208191 394.38846183 392.9641695 C388.79641261 392.93917906 383.20435535 392.9368157 377.61225891 392.93206787 C367.02297197 392.91963119 356.43385004 392.8868001 345.84463578 392.84666991 C333.78914975 392.80197385 321.73365587 392.77997059 309.67810762 392.75988817 C284.87906356 392.71806816 260.08016602 392.64770254 235.28125 392.55859375 C235.13051025 393.8314624 234.97977051 395.10433105 234.82446289 396.41577148 C233.90587299 404.17248015 230.45628218 408.8995842 224.671875 414.015625 C217.94469368 418.35751491 211.7357219 419.00862128 203.9375 418.95703125 C202.96897095 418.95990143 202.00044189 418.96277161 201.00256348 418.96572876 C198.96540742 418.96776009 196.92823145 418.96229578 194.89111328 418.94970703 C191.79024233 418.93364034 188.69067463 418.94958784 185.58984375 418.96875 C183.60155965 418.9667674 181.61327636 418.96292339 179.625 418.95703125 C178.70706665 418.96310394 177.7891333 418.96917664 176.84338379 418.97543335 C168.4797119 418.88499289 161.73912268 416.66301195 155.109375 411.4296875 C150.20317149 406.40816724 148.33799553 400.33108078 147.28125 393.55859375 C145.74204376 393.55639391 145.74204376 393.55639391 144.17174244 393.55414963 C119.2177547 393.51757467 94.26390139 393.45815144 69.31002522 393.37469101 C57.24256984 393.33486078 45.17518006 393.30248852 33.10766602 393.28759766 C22.59113011 393.2746018 12.07473828 393.24769003 1.55828351 393.20398068 C-4.01149198 393.18131942 -9.58108946 393.16568587 -15.15091515 393.1667099 C-20.39174978 393.16745375 -25.63219021 393.14961357 -30.8729229 393.11742592 C-32.7978104 393.10889647 -34.72274196 393.10719754 -36.64764023 393.11279106 C-39.27379162 393.11940673 -41.89867982 393.10156945 -44.52470398 393.07757568 C-45.67014216 393.08921631 -45.67014216 393.08921631 -46.8387205 393.1010921 C-51.81759268 393.02043358 -54.2393228 392.09768313 -57.71875 388.55859375 C-58.34319448 385.79013205 -58.34319448 385.79013205 -58.34236908 382.53340912 C-58.35417442 381.29130629 -58.36597976 380.04920346 -58.37814283 378.76946115 C-58.36595033 377.38874315 -58.35328915 376.00802922 -58.34020996 374.62731934 C-58.34453747 373.16240593 -58.35105211 371.69749763 -58.35957003 370.2326026 C-58.37660463 366.20158675 -58.3623508 362.1711896 -58.34305525 358.1402061 C-58.32766036 353.79521289 -58.34102178 349.4502971 -58.35079956 345.1053009 C-58.36534531 336.59129984 -58.35307284 328.07753677 -58.33168632 319.56355822 C-58.30770637 309.65437295 -58.30938884 299.74524256 -58.31199223 289.83603472 C-58.31568464 272.1587067 -58.2948376 254.48149101 -58.26074219 236.80419922 C-58.22764941 219.64043336 -58.21348364 202.4767854 -58.21972656 185.31298828 C-58.22648681 166.63496176 -58.22404073 147.95698468 -58.20436716 129.27896547 C-58.20332768 128.29176041 -58.20228819 127.30455534 -58.2012172 126.28743497 C-58.19912627 124.30453319 -58.19701529 122.32163144 -58.19488403 120.33872971 C-58.18798122 113.42708416 -58.18732032 106.51545382 -58.18876648 99.60380554 C-58.19020449 91.1839178 -58.18054632 82.76412636 -58.15682012 74.34427059 C-58.14493987 70.04609211 -58.13784838 65.74804805 -58.14365768 61.4498539 C-58.14881472 57.51816128 -58.14019403 53.5867531 -58.12038308 49.65510923 C-58.11562806 48.22987207 -58.11596266 46.80460736 -58.12179345 45.37937421 C-58.12893551 43.44751071 -58.11594571 41.51560373 -58.10186005 39.58377838 C-58.10028884 38.50905982 -58.09871764 37.43434125 -58.09709883 36.32705545 C-57.66565441 33.17008165 -56.94213579 31.81187809 -54.71875 29.55859375 C-50.7711073 28.24271285 -47.00785644 28.43559102 -42.89453125 28.4609375 C-41.60242989 28.46305992 -41.60242989 28.46305992 -40.28422546 28.46522522 C-37.53319831 28.47082235 -34.78225256 28.48337429 -32.03125 28.49609375 C-30.1660168 28.50110912 -28.30078233 28.50567196 -26.43554688 28.50976562 C-21.86324989 28.52079083 -17.29101375 28.53805348 -12.71875 28.55859375 C-12.74493408 27.88803955 -12.77111816 27.21748535 -12.7980957 26.52661133 C-12.90232238 23.47501247 -12.96715623 20.42378833 -13.03125 17.37109375 C-13.07314453 16.31599609 -13.11503906 15.26089844 -13.15820312 14.17382812 C-13.17431641 13.15224609 -13.19042969 12.13066406 -13.20703125 11.078125 C-13.23321533 10.14073486 -13.25939941 9.20334473 -13.28637695 8.23754883 C-11.76845677 1.07361844 -6.49471388 -0.17785405 0 0 Z M4.28125 17.55859375 C4.28125 122.49859375 4.28125 227.43859375 4.28125 335.55859375 C7.03854603 336.93724177 9.30826541 336.72183819 12.39453125 336.76953125 C13.68657471 336.79571533 14.97861816 336.82189941 16.30981445 336.84887695 C17.00579742 336.8621402 17.7017804 336.87540344 18.41885376 336.8890686 C69.44359259 337.93366279 121.959822 343.35989124 169.74609375 362.19921875 C173.87519526 363.78698375 178.08441438 365.15964854 182.28125 366.55859375 C182.28125 259.96859375 182.28125 153.37859375 182.28125 43.55859375 C121.8269423 26.88154335 67.15529674 17.55859375 4.28125 17.55859375 Z M335.28125 18.30859375 C334.5121933 18.35116302 333.7431366 18.3937323 332.95077515 18.43759155 C301.04409243 20.24270907 269.9769561 25.27906793 238.96875 32.99609375 C237.87631485 33.26780899 237.87631485 33.26780899 236.7618103 33.54501343 C224.51402355 36.60873581 212.42915915 40.08776256 200.28125 43.55859375 C200.28125 150.14859375 200.28125 256.73859375 200.28125 366.55859375 C205.4515566 364.83515822 210.48972896 363.12074059 215.55371094 361.16186523 C263.13942531 342.93388718 315.17252392 337.98309322 365.74584961 336.8996582 C366.4332724 336.88349457 367.12069519 336.86733093 367.82894897 336.85067749 C369.7036699 336.80729623 371.57851893 336.76955644 373.45336914 336.73217773 C376.23087884 336.74693512 376.23087884 336.74693512 378.28125 335.55859375 C378.28125 230.61859375 378.28125 125.67859375 378.28125 17.55859375 C356.75571798 17.52415054 356.75571798 17.52415054 335.28125 18.30859375 Z " fill="#6699FF" transform="translate(64.71875,46.44140625)"/>
<path d="M0 0 C1.33319778 -0.00856522 1.33319778 -0.00856522 2.69332886 -0.01730347 C3.66586609 -0.01842133 4.63840332 -0.01953918 5.64041138 -0.02069092 C7.17983902 -0.02813828 7.17983902 -0.02813828 8.75036621 -0.03573608 C12.15138413 -0.05036228 15.55235543 -0.05716016 18.95339966 -0.06268311 C21.31368003 -0.06843376 23.67396038 -0.0741915 26.03424072 -0.07995605 C30.98564878 -0.09046706 35.9370406 -0.09630922 40.88845825 -0.09979248 C47.23621275 -0.10528028 53.58375308 -0.12931418 59.93144035 -0.15776443 C64.80758291 -0.17637729 69.68367371 -0.18159568 74.55984879 -0.18312836 C76.90024106 -0.18615798 79.24063236 -0.19419689 81.58098984 -0.20731354 C84.85356762 -0.22434693 88.12561989 -0.2225003 91.39822388 -0.21600342 C92.36671265 -0.2252182 93.33520142 -0.23443298 94.33303833 -0.243927 C99.23044709 -0.21343365 102.73014778 -0.14793889 106.64871216 3.14044189 C108.77736717 6.33342441 108.90036607 7.13321436 108.90940857 10.79544067 C108.91649338 11.75155243 108.92357819 12.70766418 108.93087769 13.69274902 C108.92840027 14.74009216 108.92592285 15.7874353 108.92337036 16.86651611 C108.92848129 17.97082977 108.93359222 19.07514343 108.93885803 20.21292114 C108.95279006 23.87371193 108.95179441 27.5343152 108.94949341 31.19512939 C108.95337858 33.73477245 108.95771288 36.27441485 108.96247864 38.8140564 C108.9699488 44.14211397 108.96978184 49.47010241 108.96438599 54.79815674 C108.95834863 60.95289251 108.97065033 67.10739954 108.99195606 73.26209629 C109.01170783 79.18611697 109.01474429 85.11006689 109.01122093 91.03412247 C109.0117349 93.55313784 109.01698669 96.0721568 109.02703285 98.59115219 C109.03935251 102.11280741 109.03263172 105.63393205 109.02102661 109.15557861 C109.02867035 110.19887329 109.03631409 111.24216797 109.04418945 112.31707764 C108.97983018 121.14155166 108.97983018 121.14155166 105.64871216 125.14044189 C102.14501977 128.20617274 99.15775775 129.26194681 94.53866577 129.28088379 C93.70324249 129.28659393 92.86781921 129.29230408 92.00708008 129.29818726 C91.09378937 129.29930511 90.18049866 129.30042297 89.23953247 129.30157471 C88.27498138 129.30653961 87.3104303 129.31150452 86.31665039 129.31661987 C83.12003876 129.33124554 79.92347678 129.33804465 76.72683716 129.34356689 C74.50586953 129.34931859 72.28490192 129.35507632 70.06393433 129.36083984 C65.40338916 129.37135138 60.74286126 129.37719286 56.08230591 129.38067627 C50.11588323 129.38615732 44.14968919 129.41017654 38.18333817 129.43864822 C33.59363137 129.45729095 29.00397943 129.46248111 24.41423798 129.46401215 C22.21505231 129.46703616 20.01586754 129.47505618 17.81671906 129.48819733 C14.73612697 129.50528953 11.65609049 129.5033695 8.57546997 129.49688721 C7.67027618 129.50610199 6.7650824 129.51531677 5.8324585 129.52481079 C0.35803526 129.48880299 -3.58001856 128.92538348 -8.35128784 126.14044189 C-12.60336968 121.71443732 -11.77981734 115.75369203 -11.75534058 109.987854 C-11.76220383 108.86213486 -11.76906708 107.73641571 -11.77613831 106.57658386 C-11.79443495 102.85685606 -11.79056521 99.13754877 -11.78488159 95.41778564 C-11.78944133 92.83376426 -11.79474628 90.2497441 -11.80076599 87.66572571 C-11.80970227 82.25123586 -11.80750087 76.83690763 -11.79733276 71.42242432 C-11.78584186 65.16530796 -11.79994565 58.90861974 -11.82672924 52.65155977 C-11.85155039 46.62710955 -11.8540661 40.60287983 -11.84761238 34.57837105 C-11.84745874 32.01666107 -11.85353799 29.454943 -11.86590385 26.89326286 C-11.88073966 23.31639356 -11.87019093 19.7404743 -11.85299683 16.16363525 C-11.86266479 15.10118591 -11.87233276 14.03873657 -11.8822937 12.9440918 C-11.8101253 5.79402488 -11.8101253 5.79402488 -9.50743103 2.51399231 C-6.29306921 0.46631383 -3.7245156 0.01434345 0 0 Z M40.64871216 17.14044189 C40.64871216 26.05044189 40.64871216 34.96044189 40.64871216 44.14044189 C45.92871216 44.14044189 51.20871216 44.14044189 56.64871216 44.14044189 C56.64871216 35.23044189 56.64871216 26.32044189 56.64871216 17.14044189 C51.36871216 17.14044189 46.08871216 17.14044189 40.64871216 17.14044189 Z " fill="#6699FF" transform="translate(305.3512878417969,134.85955810546875)"/>
<path d="M0 0 C9.57 0 19.14 0 29 0 C29 108.9 29 217.8 29 330 C-70.1875 330.3125 -70.1875 330.3125 -101.53198242 330.38793945 C-110.78599634 330.42449413 -110.78599634 330.42449413 -120.03999329 330.4650116 C-124.16895184 330.48298323 -128.29783934 330.49256189 -132.42683411 330.49711609 C-137.69030152 330.50319435 -142.95353234 330.52348505 -148.21691191 330.55416143 C-150.15064903 330.56299447 -152.08441708 330.56679296 -154.01817358 330.56503928 C-156.62703416 330.56338973 -159.23515811 330.58001126 -161.84391785 330.60127258 C-162.60343404 330.59642444 -163.36295023 330.59157629 -164.14548206 330.58658123 C-168.59220167 330.64636934 -171.46641767 331.24563297 -175 334 C-176.90518521 337.81037041 -176.24543309 343.07935935 -176.328125 347.30078125 C-177.17435391 351.95996021 -178.23341563 353.16396236 -182 356 C-185.2441775 356.71766654 -188.40688992 356.67774428 -191.71875 356.62890625 C-193.12199524 356.63252419 -193.12199524 356.63252419 -194.55358887 356.63621521 C-196.52714283 356.63523778 -198.50072455 356.6218689 -200.47412109 356.59692383 C-203.49020787 356.5626114 -206.50336412 356.57627096 -209.51953125 356.59570312 C-211.4401166 356.58880441 -213.36069441 356.5791318 -215.28125 356.56640625 C-216.18033081 356.57136612 -217.07941162 356.57632599 -218.0057373 356.58143616 C-222.14475345 356.50380862 -224.44045314 356.33957747 -228.04492188 354.15209961 C-231.43288583 350.42271621 -231.106722 346.9657497 -231.25 342.125 C-231.46000693 336.28341628 -231.46000693 336.28341628 -234.5625 331.625 C-235.366875 331.08875 -236.17125 330.5525 -237 330 C-232.43270094 330.67270296 -228.43458728 332.38581356 -224.25 334.25 C-223.18265625 334.71599609 -223.18265625 334.71599609 -222.09375 335.19140625 C-217.54922099 337.20658973 -213.29045605 339.42037514 -209.1875 342.25 C-204.41813051 343.8852124 -199.60294056 342.46066339 -195.2109375 340.36328125 C-193.92678016 339.69009814 -192.64825902 339.00607555 -191.375 338.3125 C-189.9637023 337.5792092 -188.5509136 336.84878154 -187.13671875 336.12109375 C-186.43853027 335.75999512 -185.7403418 335.39889648 -185.02099609 335.02685547 C-169.27332107 327.02556033 -152.26421921 322.22510718 -135.07421875 318.46777344 C-133.06067901 318.0136842 -131.06253903 317.51776281 -129.0625 317.0078125 C-97.52077426 309.15568505 -63.13444571 307.29251393 -30.71875 306.76953125 C-29.90553787 306.7548732 -29.09232574 306.74021515 -28.25447083 306.72511292 C-24.41819968 306.66022714 -20.58556634 306.62495348 -16.7487793 306.6418457 C-15.38850312 306.62903963 -14.0282323 306.61564652 -12.66796875 306.6015625 C-10.90876099 306.60663818 -10.90876099 306.60663818 -9.11401367 306.61181641 C-4.78042752 305.76038819 -3.61500564 304.58304727 -1 301 C-0.24275254 296.99729357 -0.3232657 293.03506998 -0.36076355 288.97160339 C-0.35240787 287.73818201 -0.3440522 286.50476062 -0.33544332 285.23396283 C-0.31728713 281.81291523 -0.32150132 278.39321345 -0.3351289 274.97223198 C-0.34438833 271.28238264 -0.32485027 267.59267292 -0.30880737 263.90286255 C-0.28495866 257.51098241 -0.27936078 251.11929512 -0.28615379 244.72737694 C-0.29594893 235.485778 -0.27822728 226.24439307 -0.25378648 217.00282875 C-0.21488065 202.00912396 -0.19823298 187.01548032 -0.19555664 172.02172852 C-0.1929092 157.45659244 -0.17979529 142.89152782 -0.15258789 128.32641602 C-0.15091451 127.42864396 -0.14924113 126.53087191 -0.14751705 125.60589465 C-0.13905759 121.10204203 -0.13039217 116.59818984 -0.12162435 112.09433782 C-0.0491514 74.72956541 -0.01416163 37.36483665 0 0 Z " fill="#9AC8FF" transform="translate(460,92)"/>
<path d="M0 0 C9.57 0 19.14 0 29 0 C29.00546844 5.6397718 29.00546844 5.6397718 29.01104736 11.39347839 C29.04630922 45.85621224 29.10131874 80.31886913 29.17792095 114.78153671 C29.18793865 119.29649615 29.19778274 123.81145596 29.20751953 128.32641602 C29.2094609 129.22527951 29.21140228 130.124143 29.21340248 131.05024479 C29.24444042 145.61271411 29.26140813 160.17516766 29.27319422 174.73766383 C29.28559649 189.67536695 29.31307696 204.6129872 29.35461307 219.55063802 C29.37977498 228.77117466 29.39311532 237.9915739 29.39142957 247.21214537 C29.39139986 253.53136193 29.4059898 259.85043832 29.43216428 266.16960027 C29.44684099 269.81781235 29.45498713 273.46573696 29.44580269 277.11397362 C29.43601985 281.06670365 29.45697922 285.01892642 29.48101807 288.97160339 C29.47325765 290.12821462 29.46549723 291.28482585 29.45750165 292.47648591 C29.5055934 298.62364831 29.5055934 298.62364831 31.83024216 304.21254444 C34.93219647 306.76794734 37.11835512 306.62741305 41.10546875 306.63671875 C41.80899979 306.64628098 42.51253082 306.6558432 43.23738098 306.66569519 C44.75801626 306.68416654 46.27881456 306.69175215 47.79956055 306.68963623 C51.88131848 306.68598472 55.9618386 306.766726 60.04296875 306.83203125 C60.87746552 306.84298828 61.71196228 306.85394531 62.57174683 306.86523438 C94.95969181 307.32343037 127.24092408 310.6761299 159 317 C159.82000488 317.16081055 160.64000977 317.32162109 161.48486328 317.48730469 C174.67739918 320.13223443 187.30995344 324.59638238 200 329 C200 329.33 200 329.66 200 330 C134 330 68 330 0 330 C0 221.1 0 112.2 0 0 Z " fill="#9AC8FF" transform="translate(23,92)"/>
<path d="M0 0 C1.09777771 -0.00571014 2.19555542 -0.01142029 3.32659912 -0.01730347 C4.53650009 -0.01842133 5.74640106 -0.01953918 6.9929657 -0.02069092 C8.26294403 -0.02565582 9.53292236 -0.03062073 10.84138489 -0.03573608 C14.33115977 -0.04886826 17.82091541 -0.05530677 21.31071115 -0.05974674 C23.49073499 -0.0626765 25.67075357 -0.06678115 27.85077477 -0.07125092 C34.67074221 -0.08492877 41.49069762 -0.09459369 48.31067783 -0.09845281 C56.18468393 -0.10293271 64.05851637 -0.1204761 71.93246967 -0.1494534 C78.01746709 -0.17106997 84.10241565 -0.18115709 90.18745106 -0.18249393 C93.82226335 -0.18354209 97.45691246 -0.18945204 101.09168434 -0.20731354 C105.14742694 -0.22685541 109.20280624 -0.22250538 113.2585907 -0.21600342 C115.06433311 -0.22982559 115.06433311 -0.22982559 116.90655518 -0.243927 C118.56591095 -0.23557327 118.56591095 -0.23557327 120.25878906 -0.22705078 C121.21762151 -0.22851734 122.17645395 -0.2299839 123.16434193 -0.2314949 C126.34362484 0.2137997 128.23276801 1.26922482 130.81987 3.14044189 C131.94645279 5.39360748 131.96312753 6.65846256 131.99687195 9.15948486 C132.0161248 10.40119949 132.0161248 10.40119949 132.0357666 11.66799927 C132.04315353 12.56382721 132.05054047 13.45965515 132.05815125 14.38262939 C132.06622299 15.30254669 132.07429474 16.22246399 132.08261108 17.17025757 C132.09645357 19.11879591 132.10717499 21.06735852 132.11503601 23.01593018 C132.1322617 25.99670251 132.17614737 28.97636945 132.22026062 31.95684814 C132.23038635 33.84876706 132.23890283 35.74069542 132.24565125 37.63262939 C132.26315933 38.52440887 132.28066742 39.41618835 132.29870605 40.33499146 C132.2943177 41.58616257 132.2943177 41.58616257 132.2898407 42.86260986 C132.29570694 43.5938205 132.30157318 44.32503113 132.30761719 45.07839966 C131.59987043 48.07053109 130.17430972 49.20628856 127.81987 51.14044189 C125.24612427 51.64101315 125.24612427 51.64101315 122.27861023 51.64164734 C121.15139557 51.65148148 120.02418091 51.66131561 118.86280823 51.67144775 C117.63047455 51.66177979 116.39814087 51.65211182 115.12846375 51.64215088 C113.17675766 51.65025536 113.17675766 51.65025536 111.18562317 51.65852356 C107.61941985 51.67248423 104.05369866 51.66130458 100.48752213 51.64481235 C96.75512057 51.63096039 93.02274696 51.63742208 89.29032898 51.64094543 C83.02242769 51.64364745 76.7547179 51.63017281 70.48686218 51.60699463 C63.24087935 51.58038482 55.99521672 51.57863775 48.74920177 51.59038299 C41.77809745 51.6011632 34.80710893 51.59497184 27.83601379 51.58082771 C24.86957562 51.57506998 21.90322225 51.57514889 18.93678284 51.57989311 C14.79477002 51.58555263 10.65323521 51.56634267 6.51127625 51.54449463 C4.66277573 51.5512471 4.66277573 51.5512471 2.77693176 51.55813599 C1.6497171 51.54823135 0.52250244 51.53832672 -0.63887024 51.52812195 C-1.61814987 51.52569205 -2.5974295 51.52326216 -3.60638428 51.52075863 C-6.63680167 51.07296053 -7.99336868 50.25979593 -10.18013 48.14044189 C-11.47473356 44.25663124 -11.38200654 40.54258156 -11.41841125 36.49200439 C-11.426483 35.64246185 -11.43455475 34.79291931 -11.44287109 33.91763306 C-11.45669548 32.12050407 -11.46742499 30.32334901 -11.47529602 28.52618408 C-11.49252282 25.78251344 -11.53642401 23.04004382 -11.58052063 20.29669189 C-11.5906469 18.54930491 -11.59916321 16.80190769 -11.60591125 15.05450439 C-11.62341934 14.23664459 -11.64092743 13.41878479 -11.65896606 12.57614136 C-11.643739 8.56453066 -11.48261034 6.61678337 -9.27851868 3.14581299 C-6.08735515 0.09610767 -4.31276885 0.01339565 0 0 Z " fill="#6699FF" transform="translate(293.1801300048828,277.85955810546875)"/>
<path d="M0 0 C6.27 0 12.54 0 19 0 C19.02578125 2.69671875 19.0515625 5.3934375 19.078125 8.171875 C19.11654891 10.78656407 19.1617079 13.40105617 19.20751953 16.015625 C19.2357271 17.83128439 19.25694274 19.64706652 19.27099609 21.46289062 C19.29242909 24.07485789 19.33907885 26.68534974 19.390625 29.296875 C19.39185364 30.10743347 19.39308228 30.91799194 19.39434814 31.75311279 C19.48182626 35.12687291 19.75273537 37.57827757 21.47338867 40.51293945 C25.27095862 42.74803449 28.70266186 42.55369991 33.03515625 42.49609375 C33.91022324 42.49754898 34.78529022 42.49900421 35.68687439 42.50050354 C37.53355241 42.49884598 39.38024444 42.48730062 41.22680664 42.46655273 C44.05609638 42.43756561 46.88351589 42.44595258 49.71289062 42.45898438 C51.50782162 42.45274777 53.30274669 42.44435744 55.09765625 42.43359375 C55.94457535 42.43652939 56.79149445 42.43946503 57.66407776 42.44248962 C61.99052409 42.52112793 61.99052409 42.52112793 65.68431091 40.5997467 C68.6627807 36.97822451 68.22268012 33.19188814 68.31640625 28.7109375 C68.3475779 27.48330185 68.3475779 27.48330185 68.37937927 26.23086548 C68.44484812 23.61233034 68.50374726 20.99369361 68.5625 18.375 C68.60568776 16.60155193 68.64930214 14.82811419 68.69335938 13.0546875 C68.80133099 8.70322768 68.90042378 4.35169253 69 0 C74.94 0 80.88 0 87 0 C87 31.35 87 62.7 87 95 C58.29 95 29.58 95 0 95 C0 63.65 0 32.3 0 0 Z " fill="#9AC8FF" transform="translate(310,152)"/>
<path d="M0 0 C0.96115723 0.04543945 1.92231445 0.09087891 2.91259766 0.13769531 C4.6941626 0.28223145 4.6941626 0.28223145 6.51171875 0.4296875 C7.62205475 0.5147052 7.62205475 0.5147052 8.75482178 0.60144043 C14.12466878 1.01846146 19.48575266 1.50786884 24.84643555 2.02880859 C27.70223289 2.30497898 30.55898309 2.56898342 33.41601562 2.83203125 C35.2539759 3.00708271 37.09186915 3.1828397 38.9296875 3.359375 C39.77258835 3.43654755 40.6154892 3.51372009 41.4839325 3.5932312 C46.6632277 4.10765754 51.58094246 4.71822273 56.51171875 6.4296875 C59.26755428 10.02521755 59.88688175 12.68845243 59.8840332 17.16625977 C59.89337639 18.85810143 59.89337639 18.85810143 59.90290833 20.5841217 C59.89369858 21.79257248 59.88448883 23.00102325 59.875 24.24609375 C59.87574776 26.11901344 59.87574776 26.11901344 59.87651062 28.0297699 C59.87417195 30.66689071 59.86604023 33.30320507 59.84790039 35.94018555 C59.82519037 39.31511819 59.82467577 42.68960333 59.83141804 46.06459141 C59.83556747 49.29179245 59.82358388 52.51891439 59.8125 55.74609375 C59.81341141 56.95656876 59.81432281 58.16704376 59.81526184 59.41419983 C59.80572983 60.53894211 59.79619781 61.66368439 59.78637695 62.82250977 C59.77946587 64.30546288 59.77946587 64.30546288 59.77241516 65.81837463 C59.50259909 68.52103622 58.94662822 70.1426138 57.51171875 72.4296875 C53.91846135 75.22498206 49.85458047 74.49715407 45.5625 74.1640625 C44.77482742 74.1109491 43.98715485 74.05783569 43.1756134 74.00311279 C40.61979972 73.82547452 38.06591183 73.62919922 35.51171875 73.4296875 C34.66414001 73.36644287 33.81656128 73.30319824 32.94329834 73.23803711 C27.73685212 72.84692631 22.53714234 72.40499412 17.33862305 71.91992188 C15.55655938 71.75772128 13.7736157 71.60495196 11.98999023 71.4609375 C9.36330954 71.24804687 6.74072266 71.00617326 4.1171875 70.7578125 C2.92817085 70.66998505 2.92817085 70.66998505 1.71513367 70.5803833 C-1.96018593 70.20175012 -4.25736994 69.5650772 -7.48461914 67.67285156 C-10.70707765 62.45692141 -10.20104739 57.22149993 -10.15234375 51.2109375 C-10.15712738 49.92030396 -10.16191101 48.62967041 -10.1668396 47.29992676 C-10.17419555 44.5728552 -10.1635491 41.8466047 -10.14013672 39.11962891 C-10.11164682 35.63216044 -10.12805808 32.14661578 -10.15799904 28.65921783 C-10.18046025 25.32213873 -10.16471257 21.98557119 -10.15234375 18.6484375 C-10.1624649 17.39937622 -10.17258606 16.15031494 -10.18301392 14.86340332 C-10.06678036 6.27385519 -10.06678036 6.27385519 -7.22729492 2.13037109 C-4.4020396 0.37613911 -3.2615647 -0.17365049 0 0 Z " fill="#6699FF" transform="translate(92.48828125,193.5703125)"/>
<path d="M0 0 C0.87766022 0.06596375 1.75532043 0.13192749 2.65957642 0.19989014 C5.59648697 0.43864251 8.52559703 0.72504592 11.45703125 1.0234375 C12.52241623 1.12967438 13.58780121 1.23591125 14.68547058 1.34536743 C16.92197916 1.57002623 19.15825002 1.79706317 21.39428711 2.02636719 C24.81865365 2.37562763 28.24416327 2.7115786 31.66992188 3.046875 C33.84904024 3.26742135 36.02807979 3.48874816 38.20703125 3.7109375 C39.74143608 3.85950699 39.74143608 3.85950699 41.30683899 4.01107788 C42.73433723 4.16100693 42.73433723 4.16100693 44.19067383 4.31396484 C45.02512527 4.39834808 45.85957672 4.48273132 46.71931458 4.56967163 C50.06621826 5.2011781 52.24871498 5.91859405 54.23283386 8.77455139 C55.16902379 11.49031589 55.26126379 13.73305881 55.2746582 16.60717773 C55.28419022 17.73192001 55.29372223 18.85666229 55.30354309 20.01548767 C55.30263168 21.22596268 55.30172028 22.43643768 55.30078125 23.68359375 C55.30506638 24.93125015 55.3093515 26.17890656 55.31376648 27.46437073 C55.31950995 30.1030994 55.32094518 32.74143692 55.31567383 35.38012695 C55.30988072 38.75395143 55.32681052 42.12722665 55.3500185 45.50096035 C55.36833208 48.72850058 55.36456985 51.95601093 55.36328125 55.18359375 C55.372491 56.39204453 55.38170074 57.6004953 55.39118958 58.8455658 C55.38496078 59.97346024 55.37873199 61.10135468 55.37231445 62.26342773 C55.37294388 63.25285873 55.3735733 64.24228973 55.3742218 65.26170349 C54.93302807 68.49005431 53.90523218 70.37842041 52 73 C43.47158319 77.2642084 27.74728112 73.03327867 18.58520508 72.13842773 C16.31202825 71.92037132 14.03789212 71.71210293 11.76293945 71.51342773 C8.45801943 71.22456522 5.15704625 70.90664067 1.85546875 70.58203125 C0.84083054 70.49846878 -0.17380768 70.41490631 -1.2191925 70.32881165 C-5.43142058 69.88587005 -8.42275387 69.32620314 -12.13696289 67.22729492 C-15.16253774 61.98616349 -14.71222535 56.72507335 -14.6640625 50.78125 C-14.66884613 49.49061646 -14.67362976 48.19998291 -14.67855835 46.87023926 C-14.6859143 44.1431677 -14.67526785 41.4169172 -14.65185547 38.68994141 C-14.62336557 35.20247294 -14.63977683 31.71692828 -14.66971779 28.22953033 C-14.692179 24.89245123 -14.67643132 21.55588369 -14.6640625 18.21875 C-14.67418365 16.96968872 -14.68430481 15.72062744 -14.69473267 14.43371582 C-14.58027336 5.97528304 -14.58027336 5.97528304 -12.02099609 1.67382812 C-7.80703193 -0.66098182 -4.71032834 -0.44278503 0 0 Z " fill="#6699FF" transform="translate(97,288)"/>
<path d="M0 0 C2.83984589 0.27005197 5.68100806 0.52053804 8.52270508 0.77026367 C10.35029013 0.94160884 12.17776875 1.114094 14.00512695 1.2878418 C14.84377792 1.35985306 15.68242889 1.43186432 16.54649353 1.50605774 C21.70669802 2.02429046 25.78304875 3.01134118 30.3840332 5.45581055 C32.64562799 8.84820273 32.64446776 10.05990893 32.67456055 14.04125977 C32.68732025 15.18609833 32.70007996 16.33093689 32.71322632 17.51046753 C32.71545197 18.7479776 32.71767761 19.98548767 32.7199707 21.26049805 C32.7299559 23.16739914 32.7299559 23.16739914 32.74014282 25.11282349 C32.75027775 27.80460591 32.75582377 30.49598457 32.75463867 33.18774414 C32.75443559 36.630106 32.78172439 40.07164121 32.81618309 43.5138073 C32.84382575 46.80433975 32.84260209 50.09486525 32.8449707 53.38549805 C32.85934174 54.61895966 32.87371277 55.85242126 32.88851929 57.1232605 C32.88236603 58.27440338 32.87621277 59.42554626 32.86987305 60.61157227 C32.87272308 61.62178436 32.87557312 62.63199646 32.87850952 63.67282104 C32.24428098 67.24235775 30.92820141 68.91201471 28.3840332 71.45581055 C21.80091609 73.0818135 15.31202101 72.22948169 8.62231445 71.56518555 C7.51349411 71.4599054 6.40467377 71.35462524 5.26225281 71.24615479 C2.92960984 71.02183988 0.59740033 70.79297586 -1.734375 70.55981445 C-5.30100788 70.20605444 -8.86927959 69.87508099 -12.43823242 69.5456543 C-14.70985132 69.32437471 -16.98134104 69.1017641 -19.25268555 68.87768555 C-20.31734543 68.78066345 -21.38200531 68.68364136 -22.47892761 68.5836792 C-31.80382724 67.61726858 -31.80382724 67.61726858 -35.6159668 64.45581055 C-36.94397661 61.79979091 -36.76506669 59.75876864 -36.79296875 56.78442383 C-36.80580399 55.59624054 -36.81863922 54.40805725 -36.8318634 53.18386841 C-36.83925034 51.89431244 -36.84663727 50.60475647 -36.85424805 49.27612305 C-36.86231979 47.95667694 -36.87039154 46.63723083 -36.87870789 45.27780151 C-36.89373368 42.48183317 -36.9035726 39.68589023 -36.91113281 36.88989258 C-36.92220134 33.30958073 -36.95660647 29.72988972 -36.99630451 26.14979744 C-37.02245192 23.39597419 -37.03082285 20.64229936 -37.03441429 17.88836288 C-37.04165119 15.92736721 -37.06809719 13.96647293 -37.09480286 12.00564575 C-37.09187729 10.81115814 -37.08895172 9.61667053 -37.0859375 8.38598633 C-37.09180374 7.33500763 -37.09766998 6.28402893 -37.10371399 5.20120239 C-34.86833296 -7.38112905 -9.28869281 -0.89247323 0 0 Z " fill="#6699FF" transform="translate(119.615966796875,101.544189453125)"/>
<path d="M0 0 C36.3 0 72.6 0 110 0 C110 5.94 110 11.88 110 18 C73.7 18 37.4 18 0 18 C0 12.06 0 6.12 0 0 Z " fill="#9AC8FF" transform="translate(299,295)"/>
<path d="M0 0 C5.383125 0.474375 10.76625 0.94875 16.3125 1.4375 C18.85578003 1.65877563 18.85578003 1.65877563 21.45043945 1.88452148 C22.79641242 2.00475826 24.14236138 2.12526409 25.48828125 2.24609375 C26.18546265 2.30575317 26.88264404 2.3654126 27.60095215 2.42687988 C30.57855705 2.69718042 33.15041017 3.05013672 36 4 C36 15.55 36 27.1 36 39 C22.5 39 22.5 39 17.578125 38.5625 C16.63356445 38.48128906 15.68900391 38.40007812 14.71582031 38.31640625 C13.57209961 38.21199219 12.42837891 38.10757813 11.25 38 C7.5375 37.67 3.825 37.34 0 37 C0 24.79 0 12.58 0 0 Z " fill="#99C8FF" transform="translate(99,305)"/>
<path d="M0 0 C5.8471875 0.4640625 5.8471875 0.4640625 11.8125 0.9375 C13.62004761 1.08046509 13.62004761 1.08046509 15.46411133 1.22631836 C16.94560669 1.34438843 16.94560669 1.34438843 18.45703125 1.46484375 C19.44678955 1.543396 20.43654785 1.62194824 21.45629883 1.70288086 C26.30642419 2.10953622 31.15284498 2.55934954 36 3 C36 14.88 36 26.76 36 39 C31.2665625 38.814375 31.2665625 38.814375 26.4375 38.625 C25.4777124 38.59100098 24.5179248 38.55700195 23.52905273 38.52197266 C15.5211888 38.17218751 8.05738365 37.07431782 0 36 C0 24.12 0 12.24 0 0 Z " fill="#9AC8FF" transform="translate(99,211)"/>
<path d="M0 0 C12.09225637 0.57582173 23.97886095 1.56891202 36 3 C36 14.88 36 26.76 36 39 C16.45524691 37.85030864 16.45524691 37.85030864 8.4375 36.9375 C5.653125 36.628125 2.86875 36.31875 0 36 C0 24.12 0 12.24 0 0 Z " fill="#9AC8FF" transform="translate(99,117)"/>
<path d="M0 0 C1.1869043 0.04592285 2.37380859 0.0918457 3.59667969 0.13916016 C12.92437222 0.55121225 22.20603406 1.24432639 31.5 2.125 C32.76553711 2.23875977 34.03107422 2.35251953 35.33496094 2.46972656 C49.83954441 3.93780181 49.83954441 3.93780181 53.75 8.5 C54.62559147 12.4401616 54.21466824 16.1422196 52.125 19.625 C45.56574359 23.56055384 36.63009278 21.24763467 29.5 20.4375 C26.82062583 20.1448603 24.14119866 19.85453287 21.4609375 19.5703125 C20.44249252 19.46182732 20.44249252 19.46182732 19.4034729 19.35115051 C14.74492502 18.86860015 10.09017314 18.52017536 5.4140625 18.2421875 C4.18655273 18.16782471 2.95904297 18.09346191 1.69433594 18.0168457 C-0.6427368 17.88304749 -2.98070085 17.76382973 -5.31933594 17.66088867 C-6.3715332 17.59877197 -7.42373047 17.53665527 -8.5078125 17.47265625 C-9.4270752 17.42890869 -10.34633789 17.38516113 -11.29345703 17.34008789 C-14.45456351 16.58075631 -15.71320325 15.23374914 -17.75 12.75 C-18.47771233 10.01037712 -18.32971577 7.51785861 -17.75 4.75 C-12.83931587 -1.63388937 -7.40407074 -0.28652244 0 0 Z " fill="#6698FF" transform="translate(181.75,116.25)"/>
<path d="M0 0 C0.98299072 0.0117627 1.96598145 0.02352539 2.97875977 0.03564453 C12.26292236 0.23866238 21.50407803 0.98801389 30.75 1.8125 C31.4647348 1.87535187 32.1794696 1.93820374 32.91586304 2.00296021 C51.58657038 3.67883573 51.58657038 3.67883573 56.25 6.6875 C57.84636239 9.31680277 58.18980347 11.37008664 58.3125 14.4375 C56.70838152 17.96656067 55.57090638 19.26522908 52.3125 21.4375 C49.31713867 21.46240234 49.31713867 21.46240234 45.54296875 21.1484375 C44.09300432 21.03654861 42.64296708 20.9256005 41.19287109 20.81542969 C40.40829529 20.75286987 39.62371948 20.69031006 38.81536865 20.62585449 C35.2650935 20.35867696 31.71191862 20.1573156 28.15750122 19.95391846 C24.2978994 19.73118807 20.43965891 19.4882952 16.58129883 19.24511719 C14.59102841 19.12217373 12.60045177 19.00410133 10.60961914 18.890625 C7.69325313 18.7234463 4.77839198 18.53922144 1.86328125 18.3515625 C0.53361076 18.28106186 0.53361076 18.28106186 -0.82292175 18.20913696 C-5.50692708 17.88924979 -8.88669088 17.46927198 -12.6875 14.4375 C-14.25221233 11.30807535 -14.38451958 7.82667777 -13.6875 4.4375 C-10.33512222 -0.85036662 -5.64656471 -0.13336426 0 0 Z " fill="#6698FF" transform="translate(177.6875,304.5625)"/>
<path d="M0 0 C1.06047798 0.0562706 1.06047798 0.0562706 2.14237976 0.11367798 C4.44443143 0.23943264 6.74561689 0.37613314 9.046875 0.515625 C9.82821808 0.56197083 10.60956116 0.60831665 11.4145813 0.65606689 C21.54244056 1.26550158 31.65181654 1.98642484 41.734375 3.140625 C42.70858398 3.24213867 43.68279297 3.34365234 44.68652344 3.44824219 C48.64336223 3.94767681 51.12976744 4.26782893 54.3671875 6.68359375 C56.27736648 9.46535712 56.7280574 11.39356247 56.796875 14.765625 C55.19275652 18.29468567 54.05528138 19.59335408 50.796875 21.765625 C48.03125 21.8125 48.03125 21.8125 44.546875 21.515625 C43.90065186 21.4640625 43.25442871 21.4125 42.58862305 21.359375 C40.32337838 21.17469263 38.06028139 20.97159635 35.796875 20.765625 C33.04255629 20.5183443 30.2881777 20.27177457 27.53369141 20.02636719 C25.57616498 19.85182735 23.61880778 19.67537952 21.66162109 19.49707031 C14.17410512 18.833104 6.69305623 18.4072468 -0.82104492 18.1953125 C-5.84572074 18.00977952 -9.66495357 17.34104175 -14.015625 14.640625 C-15.97944189 11.53986149 -15.8447797 8.26299565 -15.203125 4.765625 C-11.15207524 -0.87690859 -6.48080262 -0.35061934 0 0 Z " fill="#6599FF" transform="translate(179.203125,210.234375)"/>
<path d="M0 0 C2.45407793 0.20362948 4.90889933 0.3952585 7.36401367 0.5859375 C28.22290077 2.25723145 28.22290077 2.25723145 33.38549805 5.453125 C35.32491712 8.80303067 35.76113306 12.06102847 34.76049805 15.828125 C32.80338494 18.36347607 31.6263072 19.65554818 28.44799805 20.2890625 C21.34772641 20.06201893 14.32357221 19.46271369 7.26611328 18.67456055 C1.98602356 18.09767001 -3.27403078 17.69526409 -8.5793457 17.42578125 C-9.83682617 17.35665527 -11.09430664 17.2875293 -12.38989258 17.21630859 C-14.87854536 17.08443182 -17.36825162 16.97091364 -19.85864258 16.87744141 C-29.45351305 16.34154332 -29.45351305 16.34154332 -32.5168457 13.47265625 C-34.82773813 9.92509577 -34.98150438 7.98333858 -34.23950195 3.828125 C-28.71830565 -5.78284634 -9.71751374 -0.81133682 0 0 Z " fill="#6698FF" transform="translate(198.239501953125,148.171875)"/>
<path d="M0 0 C0.68615891 0.03751373 1.37231781 0.07502747 2.07926941 0.11367798 C4.32031953 0.23971216 6.56051927 0.37631159 8.80078125 0.515625 C9.56094543 0.56197083 10.32110962 0.60831665 11.10430908 0.65606689 C21.08626713 1.27344523 31.04993335 2.00499258 40.98828125 3.140625 C41.96627686 3.24213867 42.94427246 3.34365234 43.9519043 3.44824219 C47.88625088 3.94193637 50.44755373 4.29181893 53.71484375 6.6171875 C55.93039114 10.02096143 55.89370127 12.84743374 55.11328125 16.765625 C53.55078125 19.203125 53.55078125 19.203125 51.11328125 20.765625 C46.32453081 21.70155367 42.1184952 21.76724409 37.28125 21.2421875 C35.35333618 21.0419397 35.35333618 21.0419397 33.38647461 20.83764648 C32.02457455 20.68866012 30.6626768 20.53965258 29.30078125 20.390625 C26.51487802 20.09735704 23.72830452 19.81098851 20.94140625 19.52734375 C19.9207029 19.4228466 19.9207029 19.4228466 18.87937927 19.3162384 C12.75038548 18.70191079 6.62431607 18.31674287 0.4675293 18.14501953 C-4.3580939 17.96713333 -8.58610185 17.14599514 -12.76171875 14.640625 C-14.63514709 11.51824444 -14.53183163 8.24362486 -13.88671875 4.765625 C-10.00651142 -0.45258486 -6.13650938 -0.34168261 0 0 Z " fill="#6599FF" transform="translate(177.88671875,335.234375)"/>
<path d="M0 0 C1.63340332 0.06888428 1.63340332 0.06888428 3.29980469 0.13916016 C11.88193384 0.54766083 20.44034061 1.16210321 28.99624634 1.93835449 C30.36745358 2.06221618 31.73902376 2.18212702 33.1109314 2.29797363 C35.04909755 2.46399849 36.9855541 2.64962142 38.921875 2.8359375 C40.03530273 2.9395459 41.14873047 3.0431543 42.29589844 3.14990234 C46.53976349 3.9941416 49.276464 5.713964 52.3125 8.75 C52.99174528 15.76886792 52.99174528 15.76886792 50.625 19.1875 C46.2921832 22.11507892 42.23084284 21.82262756 37.17578125 21.26171875 C35.36762939 21.06944702 35.36762939 21.06944702 33.52294922 20.87329102 C32.23662598 20.72947998 30.95030273 20.58566895 29.625 20.4375 C26.9263094 20.1433658 24.22703605 19.8550999 21.52734375 19.5703125 C20.50299225 19.46182732 20.50299225 19.46182732 19.45794678 19.35115051 C14.87348272 18.877907 10.29236723 18.52489788 5.69140625 18.2421875 C4.50957764 18.16782471 3.32774902 18.09346191 2.11010742 18.0168457 C-0.12976589 17.88311477 -2.3705636 17.76388309 -4.61206055 17.66088867 C-5.61922119 17.59877197 -6.62638184 17.53665527 -7.6640625 17.47265625 C-8.54143066 17.42890869 -9.41879883 17.38516113 -10.32275391 17.34008789 C-13.41360788 16.56881037 -14.68270074 15.17528897 -16.6875 12.75 C-17.41521233 10.01037712 -17.26721577 7.51785861 -16.6875 4.75 C-11.96104452 -1.39439212 -7.13167587 -0.30196793 0 0 Z " fill="#6599FF" transform="translate(180.6875,241.25)"/>
</svg>
