<?xml version="1.0" encoding="UTF-8"?>
<svg version="1.1" xmlns="http://www.w3.org/2000/svg" width="512" height="512">
<path d="M0 0 C0.73664886 -0.00701431 1.47329773 -0.01402863 2.23226929 -0.02125549 C4.59631536 -0.03865991 6.96011097 -0.04510754 9.32421875 -0.046875 C10.13162506 -0.04754974 10.93903137 -0.04822449 11.77090454 -0.04891968 C23.73623448 -0.03301683 35.34488451 0.28641644 47.01171875 3.203125 C47.72199219 3.38004883 48.43226563 3.55697266 49.1640625 3.73925781 C54.1805665 5.03362315 59.10156312 6.55390347 64.01171875 8.203125 C64.67768066 8.42339355 65.34364258 8.64366211 66.02978516 8.87060547 C89.14212906 16.63486445 109.09509017 29.83224477 127.01171875 46.203125 C127.8315625 46.95078125 128.65140625 47.6984375 129.49609375 48.46875 C151.11303539 69.16582178 166.50071766 97.62599036 173.82421875 126.453125 C174.01910889 127.21971436 174.21399902 127.98630371 174.41479492 128.77612305 C177.52306177 141.78043207 178.38780567 154.58405989 178.32421875 167.890625 C178.32148453 169.07975494 178.32148453 169.07975494 178.31869507 170.29290771 C178.27276476 182.16387189 177.79786164 193.61586938 175.01171875 205.203125 C174.85074707 205.91919922 174.68977539 206.63527344 174.52392578 207.37304688 C167.43431746 238.34666709 150.99368656 265.57746853 129.01171875 288.203125 C128.48255859 288.75492432 127.95339844 289.30672363 127.40820312 289.87524414 C101.13833847 316.82411801 59.94207322 335.85004769 22.10188293 336.39292908 C21.41599594 336.39732498 20.73010895 336.40172089 20.0234375 336.40625 C19.28683395 336.41326431 18.55023041 336.42027863 17.79130554 336.42750549 C15.42721369 336.44491105 13.06337233 336.45135771 10.69921875 336.453125 C9.8914801 336.45379974 9.08374146 336.45447449 8.25152588 336.45516968 C-3.74294575 336.43923582 -15.27827672 336.01878273 -26.98828125 333.203125 C-27.70435547 333.04215332 -28.42042969 332.88118164 -29.15820312 332.71533203 C-60.13182334 325.62572371 -87.36262478 309.18509281 -109.98828125 287.203125 C-110.53935547 286.67541504 -111.09042969 286.14770508 -111.65820312 285.60400391 C-115.96100052 281.41387623 -119.73714561 276.98689237 -123.36328125 272.203125 C-123.92490967 271.46255859 -124.48653809 270.72199219 -125.06518555 269.95898438 C-144.62652022 243.7691054 -157.86888156 211.07931686 -158.2265625 178.1015625 C-158.23631104 177.35082962 -158.24605957 176.60009674 -158.25610352 175.82661438 C-158.42698368 159.26010246 -158.28570175 143.32721495 -153.98828125 127.203125 C-153.80104492 126.48511719 -153.61380859 125.76710938 -153.42089844 125.02734375 C-152.16086652 120.33541143 -150.66416634 115.76194511 -148.98828125 111.203125 C-148.61944824 110.19354736 -148.61944824 110.19354736 -148.24316406 109.16357422 C-139.56815396 85.87601574 -126.2588983 65.97947022 -108.98828125 48.203125 C-108.46057129 47.65205078 -107.93286133 47.10097656 -107.38916016 46.53320312 C-103.19903248 42.23040573 -98.77204862 38.45426064 -93.98828125 34.828125 C-93.24771484 34.26649658 -92.50714844 33.70486816 -91.74414062 33.1262207 C-65.6545296 13.6397766 -32.88507512 0.21076153 0 0 Z M-98.98828125 63.203125 C-99.80619141 63.93595703 -99.80619141 63.93595703 -100.640625 64.68359375 C-124.07103083 86.38906172 -139.74717539 123.12028417 -141.14941406 154.84912109 C-141.72550822 178.7331517 -141.72550822 178.7331517 -137.98828125 202.203125 C-137.71419434 203.3159082 -137.71419434 203.3159082 -137.43457031 204.45117188 C-130.17265518 233.66577298 -115.08501901 257.20085025 -93.98828125 278.203125 C-93.45944336 278.75347412 -92.93060547 279.30382324 -92.38574219 279.87084961 C-75.17925092 297.59353562 -51.46074626 308.59632089 -27.98828125 315.203125 C-26.79332031 315.53957031 -25.59835938 315.87601562 -24.3671875 316.22265625 C14.18010054 325.61653317 55.72381941 318.0918371 89.48828125 297.70800781 C99.18692915 291.49227736 107.78474593 284.23932744 116.01171875 276.203125 C116.85992187 275.41679687 117.708125 274.63046875 118.58203125 273.8203125 C136.95195763 256.37176174 149.30374688 232.64673814 156.32421875 208.515625 C156.5668042 207.68522705 156.80938965 206.8548291 157.05932617 205.99926758 C160.50162162 193.56246949 161.3905009 181.28882202 161.32421875 168.453125 C161.3220636 167.70133972 161.31990845 166.94955444 161.31768799 166.17498779 C161.26728122 155.22098581 160.85522078 144.83912496 158.01171875 134.203125 C157.73763184 133.0903418 157.73763184 133.0903418 157.45800781 131.95507812 C150.72115377 104.85279176 137.12924167 81.26893335 117.42578125 61.625 C116.04551637 60.24026824 114.68160421 58.83764105 113.37109375 57.38671875 C88.17791172 30.05333922 48.88246878 18.51492819 13.01171875 16.203125 C-29.31755121 14.89228309 -69.7930746 33.23962344 -98.98828125 63.203125 Z " fill="#2A8BFF" transform="translate(245.98828125,87.796875)"/>
<path d="M0 0 C1.2902433 -0.01058945 1.2902433 -0.01058945 2.60655212 -0.02139282 C38.72245528 -0.25050378 38.72245528 -0.25050378 54.70703125 3.203125 C56.1458667 3.50911621 56.1458667 3.50911621 57.61376953 3.82128906 C89.12515633 10.71675736 123.35199276 23.39208438 147.70703125 45.203125 C149.09697205 47.9830066 148.89191329 50.1217576 148.70703125 53.203125 C147.85577461 55.75689492 147.13881925 56.86728989 145.01953125 58.515625 C141.60473786 59.53083384 139.18023337 58.95660893 135.70703125 58.203125 C133.28556906 56.79793885 131.13762276 55.4064163 128.89453125 53.765625 C83.46731418 22.18147785 27.020763 11.2639498 -27.203125 20.97265625 C-47.99355169 24.99374147 -67.65746353 32.23883445 -86.29296875 42.203125 C-86.89882812 42.52539062 -87.5046875 42.84765625 -88.12890625 43.1796875 C-135.49665262 68.62175214 -170.1446176 112.57261844 -186.20532227 163.63256836 C-190.91056711 179.51501069 -194.40084367 196.39533472 -194.49609375 212.99609375 C-194.50315338 213.81596771 -194.51021301 214.63584167 -194.51748657 215.4805603 C-194.79187054 240.49986305 -194.79187054 240.49986305 -191.29296875 265.203125 C-191.10492676 266.08532715 -190.91688477 266.9675293 -190.72314453 267.87646484 C-184.68734963 295.48170341 -173.24635399 321.60226172 -156.6484375 344.46875 C-154.24411856 347.93944731 -153.31226404 349.62426629 -153.16796875 353.953125 C-154.29296875 357.203125 -154.29296875 357.203125 -156.16796875 359.703125 C-164.41172258 363.66012684 -177.0309638 359.05967055 -185.74682617 357.30175781 C-188.11635486 356.82593899 -190.4885773 356.36569707 -192.86132812 355.90625 C-194.38690515 355.60249719 -195.91230275 355.29784153 -197.4375 354.9921875 C-198.48766045 354.79044418 -198.48766045 354.79044418 -199.55903625 354.58462524 C-203.86178307 353.69988619 -207.50244863 352.43360479 -211.29296875 350.203125 C-212.8997893 346.9894839 -212.75447383 343.68852159 -212.29296875 340.203125 C-210.91796875 337.703125 -210.91796875 337.703125 -208.29296875 336.203125 C-200.31735727 334.82364548 -188.52539332 336.58691272 -181.29296875 340.203125 C-181.66993896 339.51613525 -182.04690918 338.82914551 -182.43530273 338.12133789 C-201.35657761 303.36944547 -212.9657089 267.28357628 -212.68408203 227.40087891 C-212.66796763 224.70293687 -212.68407412 222.00649185 -212.703125 219.30859375 C-212.72275037 203.2485004 -210.95764749 187.30446968 -207.04296875 171.703125 C-206.83027344 170.84605957 -206.61757812 169.98899414 -206.3984375 169.10595703 C-197.76154935 135.29253991 -182.10494489 104.61376135 -159.29296875 78.203125 C-158.51308594 77.29304688 -157.73320312 76.38296875 -156.9296875 75.4453125 C-154.76380599 72.98246368 -152.54952181 70.58317101 -150.29296875 68.203125 C-149.82455566 67.70748047 -149.35614258 67.21183594 -148.87353516 66.70117188 C-140.93122948 58.35579355 -132.53191677 51.07106122 -123.29296875 44.203125 C-122.73528809 43.7793457 -122.17760742 43.35556641 -121.60302734 42.91894531 C-87.77358947 17.23344857 -42.6947687 0.23415827 0 0 Z " fill="#15A5FF" transform="translate(244.29296875,31.796875)"/>
<path d="M0 0 C2.36952868 0.47581882 4.74175113 0.93606075 7.11450195 1.39550781 C8.64007898 1.69926062 10.16547658 2.00391629 11.69067383 2.30957031 C12.39078079 2.44406586 13.09088776 2.5785614 13.81221008 2.71713257 C18.1149569 3.60187162 21.75562246 4.86815302 25.54614258 7.09863281 C27.15296313 10.31227392 27.00764766 13.61323622 26.54614258 17.09863281 C25.17114258 19.59863281 25.17114258 19.59863281 22.54614258 21.09863281 C14.5705311 22.47811233 2.77856715 20.7148451 -4.45385742 17.09863281 C-4.07688721 17.78562256 -3.69991699 18.4726123 -3.31152344 19.18041992 C15.60975144 53.93231235 27.21888273 90.01818153 26.93725586 129.90087891 C26.92114145 132.59882094 26.93724795 135.29526596 26.95629883 137.99316406 C26.97595218 154.07606901 25.19260141 170.03321908 21.29614258 185.66113281 C21.08707275 186.51425049 20.87800293 187.36736816 20.66259766 188.24633789 C10.51726902 228.17820462 -10.28864118 262.38997886 -38.45385742 292.09863281 C-39.52120117 293.22978516 -39.52120117 293.22978516 -40.61010742 294.38378906 C-45.8373972 299.77175373 -51.57200039 304.44570517 -57.45385742 309.09863281 C-58.97172852 310.32453125 -58.97172852 310.32453125 -60.52026367 311.57519531 C-68.40538592 317.87107759 -76.65837581 323.16776966 -85.45385742 328.09863281 C-86.1731543 328.5061377 -86.89245117 328.91364258 -87.63354492 329.33349609 C-99.8136248 336.17952282 -112.26483214 341.51195407 -125.45385742 346.09863281 C-126.52265137 346.47544189 -126.52265137 346.47544189 -127.61303711 346.85986328 C-135.4419046 349.58615571 -143.33230864 351.62775316 -151.45385742 353.28613281 C-152.21190674 353.44114258 -152.96995605 353.59615234 -153.75097656 353.75585938 C-168.27270255 356.55207216 -182.51254756 357.50758628 -197.26635742 357.47363281 C-198.16093658 357.47308899 -199.05551575 357.47254517 -199.97720337 357.47198486 C-245.92615454 357.34420549 -298.43518283 343.59375655 -333.45385742 312.09863281 C-334.88047961 309.24538844 -334.7641961 307.26408732 -334.45385742 304.09863281 C-332.50463435 300.59003129 -331.11008466 299.36648066 -327.39135742 297.84863281 C-321.26579735 298.23755726 -317.3935357 301.66010352 -312.45385742 305.09863281 C-264.11483994 336.09464402 -208.75318256 346.7236246 -152.45385742 335.09863281 C-133.83162542 330.75542854 -116.29335016 324.10260648 -99.45385742 315.09863281 C-98.84799805 314.77636719 -98.24213867 314.45410156 -97.61791992 314.12207031 C-76.38942602 302.71986616 -55.62740971 286.92446245 -40.45385742 268.09863281 C-39.64819336 267.13054687 -38.8425293 266.16246094 -38.01245117 265.16503906 C-26.47152805 251.08431852 -17.06613802 235.61815668 -9.45385742 219.09863281 C-8.92276367 217.96425781 -8.39166992 216.82988281 -7.84448242 215.66113281 C2.03317411 193.6655265 8.54154832 168.62152023 8.78442383 144.44628906 C8.79421768 143.63726135 8.80401154 142.82823364 8.81410217 141.99468994 C9.24031012 97.6192023 -0.23914372 56.88012478 -24.62182617 19.43847656 C-25.09152832 18.71668213 -25.56123047 17.9948877 -26.04516602 17.2512207 C-26.99840296 15.79460196 -27.95992836 14.34337932 -28.92895508 12.8972168 C-29.38705566 12.19798096 -29.84515625 11.49874512 -30.31713867 10.77832031 C-30.93455933 9.85188721 -30.93455933 9.85188721 -31.56445312 8.90673828 C-33.11742497 5.74963989 -32.4695349 3.33610476 -31.45385742 0.09863281 C-25.11189106 -8.17349723 -8.79152743 -1.77317371 0 0 Z " fill="#3F72FF" transform="translate(453.453857421875,122.9013671875)"/>
<path d="M0 0 C1.00461777 -0.01260864 2.00923553 -0.02521729 3.04429626 -0.03820801 C4.12352859 -0.03011108 5.20276093 -0.02201416 6.31469727 -0.01367188 C7.4291774 -0.01749878 8.54365753 -0.02132568 9.69190979 -0.02526855 C12.04803368 -0.02798964 14.40418769 -0.0206148 16.76025391 -0.00390625 C20.36437503 0.01747887 23.96649801 -0.00369252 27.57055664 -0.02929688 C29.86027458 -0.02665324 32.14999128 -0.02152753 34.43969727 -0.01367188 C35.51690536 -0.0217688 36.59411346 -0.02986572 37.70396423 -0.03820801 C38.71173416 -0.02559937 39.71950409 -0.01299072 40.7578125 0 C41.64065414 0.00318237 42.52349579 0.00636475 43.43309021 0.00964355 C47.06436954 0.74433486 48.52771482 1.67253595 50.94360352 4.51757812 C51.66981875 7.91091436 51.57486757 11.24424722 51.51123047 14.70214844 C51.5119606 15.73661102 51.51269073 16.77107361 51.51344299 17.83688354 C51.50995884 21.25702297 51.47105645 24.67580154 51.43188477 28.09570312 C51.42255964 30.46652482 51.41544211 32.83735615 51.41044617 35.20819092 C51.39135301 41.44900094 51.34223113 47.68922938 51.28692627 53.92980957 C51.23578442 60.29752738 51.21294288 66.66533915 51.18774414 73.03320312 C51.13411554 85.52825036 51.04877385 98.02286589 50.94360352 110.51757812 C52.94663747 110.72916667 54.94967143 110.94075521 56.95270538 111.15234375 C58.94360352 111.51757812 58.94360352 111.51757812 61.41040039 113.01757812 C63.71588812 116.77684473 63.51652242 120.1856706 63.47485352 124.51757812 C63.48059387 125.82662109 63.48059387 125.82662109 63.4864502 127.16210938 C63.48916842 129.00456905 63.48181346 130.84706737 63.46508789 132.68945312 C63.44367599 135.50803746 63.46489153 138.32407297 63.49047852 141.14257812 C63.48783522 142.93425041 63.48271021 144.72592111 63.47485352 146.51757812 C63.48295044 147.35933594 63.49104736 148.20109375 63.49938965 149.06835938 C63.48678101 149.85597656 63.47417236 150.64359375 63.46118164 151.45507812 C63.45799927 152.14472656 63.45481689 152.834375 63.45153809 153.54492188 C62.68652713 156.51598101 61.37379069 157.68566438 58.94360352 159.51757812 C56.05981445 160.0255127 56.05981445 160.0255127 52.67797852 160.03515625 C51.40986328 160.04776489 50.14174805 160.06037354 48.83520508 160.07336426 C47.45466556 160.06620442 46.07413113 160.05800043 44.69360352 160.04882812 C43.27400446 160.05152375 41.8544072 160.05540676 40.43481445 160.0604248 C37.46230457 160.0663167 34.4902761 160.05776767 31.51782227 160.0390625 C27.71101565 160.01627212 23.90533702 160.029397 20.09857178 160.05335236 C17.16796395 160.06781926 14.23762277 160.06320048 11.30700684 160.05284119 C9.90360378 160.05017632 8.50017637 160.0534353 7.09680176 160.0627594 C5.13428217 160.07293753 3.1716775 160.05466853 1.20922852 160.03515625 C0.09322266 160.03197388 -1.0227832 160.0287915 -2.17260742 160.0255127 C-5.73980419 159.39720649 -6.92236062 158.40704458 -9.05639648 155.51757812 C-9.56433105 153.54492188 -9.56433105 153.54492188 -9.57397461 151.45507812 C-9.58658325 150.66746094 -9.59919189 149.87984375 -9.61218262 149.06835938 C-9.60003723 147.80572266 -9.60003723 147.80572266 -9.58764648 146.51757812 C-9.59147339 145.64488281 -9.59530029 144.7721875 -9.59924316 143.87304688 C-9.60196139 142.0305872 -9.59460643 140.18808888 -9.57788086 138.34570312 C-9.55646896 135.52711879 -9.5776845 132.71108328 -9.60327148 129.89257812 C-9.60062819 128.10090584 -9.59550318 126.30923514 -9.58764648 124.51757812 C-9.59574341 123.67582031 -9.60384033 122.8340625 -9.61218262 121.96679688 C-9.5543586 118.35473589 -9.43652002 116.13739739 -7.52319336 113.01757812 C-5.05639648 111.51757812 -5.05639648 111.51757812 2.94360352 110.51757812 C2.94360352 90.38757813 2.94360352 70.25757813 2.94360352 49.51757812 C0.63360352 49.51757812 -1.67639648 49.51757812 -4.05639648 49.51757812 C-6.95458984 48.09375 -6.95458984 48.09375 -9.05639648 45.51757812 C-9.77244855 42.43966385 -9.73363875 39.44740618 -9.68530273 36.29882812 C-9.68771469 35.40393677 -9.69012665 34.50904541 -9.69261169 33.58703613 C-9.69163342 31.69746463 -9.67824441 29.8078644 -9.65332031 27.91845703 C-9.6190122 25.02732925 -9.63266083 22.13925827 -9.65209961 19.24804688 C-9.645201 17.41079429 -9.63552848 15.57354959 -9.62280273 13.73632812 C-9.63024254 12.44088074 -9.63024254 12.44088074 -9.63783264 11.1192627 C-9.62199631 10.31162476 -9.60615997 9.50398682 -9.58984375 8.671875 C-9.58364517 7.96446167 -9.57744659 7.25704834 -9.57106018 6.52819824 C-8.285383 1.50548455 -4.82130145 0.01739499 0 0 Z M6.94360352 17.51757812 C6.94360352 22.46757812 6.94360352 27.41757813 6.94360352 32.51757812 C8.38735352 32.80632812 9.83110352 33.09507812 11.31860352 33.39257812 C15.69360352 34.26757812 15.69360352 34.26757812 17.94360352 36.51757812 C18.14744259 39.27235848 18.22678028 41.92702462 18.21826172 44.68334961 C18.22337265 45.52738342 18.22848358 46.37141724 18.23374939 47.24102783 C18.24768716 50.04031398 18.24668547 52.83935508 18.24438477 55.63867188 C18.24826945 57.57918897 18.25260365 59.51970521 18.25737 61.46022034 C18.26484125 65.53153233 18.26453442 69.60275761 18.25927734 73.67407227 C18.25348209 78.89773057 18.2704107 84.12103438 18.29362202 89.34463406 C18.30833669 93.35344018 18.30923414 97.3621605 18.30611229 101.37098885 C18.30662666 103.29715744 18.31188606 105.22333069 18.32192421 107.14947319 C18.33422725 109.84068873 18.32753401 112.53120815 18.31591797 115.22241211 C18.32356171 116.02199844 18.33120544 116.82158478 18.33908081 117.645401 C18.28759212 123.02794696 18.28759212 123.02794696 16.54801941 125.50404358 C13.55689808 127.39358158 10.41676141 127.23289305 6.94360352 127.51757812 C6.94360352 132.46757812 6.94360352 137.41757812 6.94360352 142.51757812 C20.14360352 142.51757812 33.34360352 142.51757812 46.94360352 142.51757812 C46.94360352 137.56757813 46.94360352 132.61757813 46.94360352 127.51757812 C45.31422852 127.22882813 43.68485352 126.94007813 42.00610352 126.64257812 C39.22875977 126.15039062 39.22875977 126.15039062 36.94360352 125.51757812 C35.78353986 123.19745081 35.806765 121.8368085 35.78538513 119.25289917 C35.77559631 118.35824951 35.7658075 117.46359985 35.75572205 116.5418396 C35.74708885 115.065858 35.74708885 115.065858 35.73828125 113.56005859 C35.72838165 112.52588806 35.71848206 111.49171753 35.70828247 110.4262085 C35.67660513 106.99575111 35.6518854 103.56527986 35.62719727 100.13476562 C35.60663312 97.76107414 35.5856368 95.38738637 35.56422424 93.01370239 C35.50894784 86.756724 35.45956314 80.49971226 35.41137695 74.24267578 C35.36120254 67.86162334 35.30549531 61.48061952 35.25024414 55.09960938 C35.14259446 42.57230555 35.04167571 30.04496059 34.94360352 17.51757812 C25.70360352 17.51757812 16.46360352 17.51757812 6.94360352 17.51757812 Z " fill="#2A8CFF" transform="translate(229.056396484375,213.482421875)"/>
<path d="M0 0 C6.14111999 4.24495745 10.57903575 9.47415233 12 17 C12.76165841 26.24870931 12.78129637 34.30556933 7 42 C1.04727089 48.56294611 -5.71429297 52.29719011 -14.61328125 52.9921875 C-23.02880001 53.01973421 -29.64820027 50.52594431 -36 45 C-43.0327943 37.30458696 -44.65986013 30.24320588 -44.37109375 20.0234375 C-43.87727287 12.49838046 -40.57504067 7.18438285 -35.1875 2.0625 C-25.12567517 -5.8525533 -10.9811349 -7.06555094 0 0 Z M-26 18 C-27.60055535 21.20111071 -27.35481231 24.51882263 -27 28 C-25.58204521 31.75340975 -24.27249862 32.82560088 -20.875 35 C-16.86514763 36.50156174 -13.83638705 35.64050039 -9.95703125 34.07421875 C-7.03445782 32.47001178 -6.05481625 31.16444876 -5 28 C-4.29772563 22.86016057 -4.29772563 22.86016057 -6.0546875 18.1875 C-7.82495431 16.00871008 -9.47268739 14.2636563 -12 13 C-18.73780747 12.32621925 -21.26848836 13.15308564 -26 18 Z " fill="#2A8CFF" transform="translate(272,143)"/>
</svg>
