<?xml version="1.0" encoding="UTF-8"?>
<svg version="1.1" xmlns="http://www.w3.org/2000/svg" width="512" height="512">
<path d="M0 0 C5.7037093 5.76852418 8.14820191 9.09214527 8.15390015 17.24795532 C8.16047353 18.38136292 8.16047353 18.38136292 8.1671797 19.53766763 C8.18059147 22.08321969 8.18675194 24.6287371 8.19287109 27.17431641 C8.20077033 28.99412188 8.20903917 30.81392579 8.21765137 32.63372803 C8.24389699 38.62299091 8.25918373 44.61226087 8.2734375 50.6015625 C8.27879655 52.66240824 8.28417406 54.72325393 8.28956985 56.78409958 C8.31120426 65.35737057 8.32994046 73.93063965 8.34119225 82.50393105 C8.35742663 94.7935319 8.39058572 107.08281633 8.44759309 119.37229788 C8.48629961 128.01103299 8.50582592 136.6496835 8.51111281 145.28850305 C8.51476591 150.44876189 8.52678255 155.60868343 8.55921555 160.76884842 C8.58930774 165.62640716 8.59560383 170.48342474 8.58383179 175.34105682 C8.58361113 177.1212071 8.59190936 178.90138256 8.60948563 180.68144608 C8.70710887 191.14022543 8.58945313 198.23126253 0.9296875 206.13671875 C-20.81371522 222.54761396 -52.4142522 226.08312483 -78.94921875 226.203125 C-79.96434036 226.20882507 -80.97946198 226.21452515 -82.02534485 226.22039795 C-84.1657306 226.22978331 -86.30613039 226.23635596 -88.4465332 226.24023438 C-91.63455313 226.24984046 -94.82189904 226.28088561 -98.00976562 226.3125 C-126.08614795 226.45769155 -165.42363915 225.04727002 -186.87890625 204.171875 C-191.81508218 198.70045107 -193.30140651 193.95221625 -193.26069641 186.57437134 C-193.26452196 185.8359152 -193.26834751 185.09745906 -193.27228898 184.33662546 C-193.28259137 181.86708503 -193.27863211 179.39777831 -193.2746582 176.92822266 C-193.27900623 175.15561203 -193.28418968 173.38300329 -193.29014587 171.61039734 C-193.30353797 166.79837223 -193.30411426 161.98642566 -193.30158257 157.17438555 C-193.30051291 153.15601226 -193.30539615 149.13765487 -193.310188 145.11928499 C-193.32128411 135.63810499 -193.32172013 126.1569646 -193.31567383 116.67578125 C-193.30963428 106.89813518 -193.32194435 97.12063302 -193.3432439 87.3430115 C-193.36086388 78.94540923 -193.36686059 70.54785275 -193.36360615 62.15023267 C-193.36179365 57.13603069 -193.36442622 52.12193135 -193.37832069 47.10774612 C-193.39090069 42.39140427 -193.38895326 37.67528657 -193.37590981 32.95894814 C-193.37354478 31.22999686 -193.37627607 29.50102981 -193.38453293 27.77209663 C-193.39500865 25.40767052 -193.38689357 23.04399542 -193.3742218 20.67959595 C-193.38159609 19.99913479 -193.38897037 19.31867364 -193.39656812 18.61759245 C-193.31699222 11.53571191 -190.64249623 5.87125198 -185.8984375 0.6875 C-149.4124524 -31.74448676 -36.82629249 -31.33204724 0 0 Z M-178 35 C-178.09906509 40.32017615 -178.17156072 45.63981247 -178.21972656 50.96069336 C-178.23981053 52.7697078 -178.26708341 54.57865757 -178.30175781 56.38745117 C-178.35041892 58.99153621 -178.37300051 61.59476115 -178.390625 64.19921875 C-178.41127014 65.00461594 -178.43191528 65.81001312 -178.45318604 66.63981628 C-178.45475661 70.5927663 -178.30031433 72.52440386 -176.13818359 75.94848633 C-163.61422865 87.96479067 -139.39607064 90.08624216 -123 92 C-122.21753906 92.09571289 -121.43507812 92.19142578 -120.62890625 92.29003906 C-111.40426936 93.28296873 -102.1423537 93.24365139 -92.875 93.25 C-91.98871918 93.25067474 -91.10243835 93.25134949 -90.18930054 93.25204468 C-63.05999892 93.21933262 -33.37172374 91.4245951 -9.35473633 77.4621582 C-6.38642572 74.35843477 -6.43150703 72.75563371 -6.43351746 68.60064697 C-6.45932388 67.76821472 -6.48513031 66.93578247 -6.51171875 66.078125 C-6.51879349 65.21813904 -6.52586823 64.35815308 -6.53315735 63.47210693 C-6.56110389 60.7305125 -6.6238402 57.990975 -6.6875 55.25 C-6.71258266 53.38935245 -6.73539589 51.52867283 -6.75585938 49.66796875 C-6.81093113 45.11118894 -6.89720345 40.55594296 -7 36 C-10.26845204 37.08082815 -13.51528391 38.18786392 -16.75 39.3671875 C-28.63759362 43.63763874 -40.51041369 46.19384146 -53 48 C-54.20172852 48.17789063 -54.20172852 48.17789063 -55.42773438 48.359375 C-82.40947358 52.14628577 -111.15528055 51.23815918 -138 47 C-138.88268555 46.86078125 -139.76537109 46.7215625 -140.67480469 46.578125 C-153.46646423 44.45028637 -166.36145708 40.81927146 -178 35 Z M-178 93 C-178.09904974 98.46259293 -178.17155375 103.92466049 -178.21972656 109.38793945 C-178.23981305 111.24545398 -178.26708778 113.10290551 -178.30175781 114.96020508 C-178.35040737 117.63378463 -178.37299809 120.30652656 -178.390625 122.98046875 C-178.41127014 123.80773972 -178.43191528 124.63501068 -178.45318604 125.48735046 C-178.4547473 129.52033938 -178.32349784 131.49291214 -176.1015625 134.97583008 C-157.0957036 153.28177526 -117.31485695 152.23490856 -92.8125 152.25 C-91.83023438 152.25067474 -90.84796875 152.25134949 -89.8359375 152.25204468 C-45.57081866 152.52908332 -45.57081866 152.52908332 -7 134 C-6.91128727 130.97022196 -6.8848065 127.96332978 -6.90234375 124.93359375 C-6.9037587 124.02497086 -6.90517365 123.11634796 -6.90663147 122.18019104 C-6.91224807 119.26592779 -6.92480335 116.35174019 -6.9375 113.4375 C-6.94251286 111.46679798 -6.94707614 109.49609476 -6.95117188 107.52539062 C-6.96222289 102.68356441 -6.97949862 97.84179505 -7 93 C-9.95762986 93.97344567 -12.87982879 94.95169422 -15.76953125 96.11328125 C-23.42074354 99.12858571 -31.07894328 101.04822606 -39.125 102.6875 C-40.0941333 102.88964111 -41.0632666 103.09178223 -42.06176758 103.30004883 C-58.61264466 106.52749001 -75.30000198 107.38516141 -92.125 107.3125 C-93.01120026 107.31067719 -93.89740051 107.30885437 -94.81045532 107.30697632 C-121.48827995 107.21515399 -148.5936023 104.93759899 -173.296875 94.13671875 C-175.81853567 92.87078664 -175.81853567 92.87078664 -178 93 Z M-178 152 C-178.17350846 157.58659092 -178.30028255 163.17160262 -178.38452148 168.76025391 C-178.41964698 170.65962045 -178.46736031 172.55879874 -178.52807617 174.45751953 C-178.61335182 177.19350637 -178.65276453 179.92698578 -178.68359375 182.6640625 C-178.71972275 183.50804596 -178.75585175 184.35202942 -178.79307556 185.22158813 C-178.79540531 188.74837851 -178.7641958 191.06080329 -176.48664856 193.85990906 C-152.23884507 215.02968359 -103.61094414 213.24908981 -73.69140625 211.4375 C-38.96751911 209.2167394 -38.96751911 209.2167394 -8.2875061 194.64749146 C-5.73081864 191.37595687 -6.27268765 187.51937212 -6.4140625 183.54296875 C-6.42255219 182.64000565 -6.43104187 181.73704254 -6.43978882 180.80671692 C-6.47328455 177.93241308 -6.54855414 175.06095067 -6.625 172.1875 C-6.65510467 170.23506666 -6.6824796 168.28258919 -6.70703125 166.33007812 C-6.77306313 161.55229636 -6.87655653 156.77662931 -7 152 C-8.22654297 152.47268311 -9.45308594 152.94536621 -10.71679688 153.43237305 C-19.88541144 156.91937274 -28.81632344 160.0668032 -38.5 161.8125 C-39.44746094 162.00263672 -40.39492188 162.19277344 -41.37109375 162.38867188 C-58.20313281 165.60688696 -75.02683174 166.37846516 -92.125 166.3125 C-93.10968262 166.31067719 -94.09436523 166.30885437 -95.10888672 166.30697632 C-121.12669825 166.22605287 -147.23987772 164.19813896 -171.50390625 154.015625 C-173.67772144 153.13113056 -175.72480846 152.53859956 -178 152 Z " fill="#0083E0" transform="translate(344,286)"/>
<path d="M0 0 C1.38154329 0.03498596 1.38154329 0.03498596 2.79099655 0.07067871 C12.16088899 0.3275975 21.52472628 0.75919599 30.87109375 1.47900391 C32.18005615 1.57790924 33.48901855 1.67681458 34.83764648 1.77871704 C38.07005156 2.38820869 39.12896484 2.74670682 41 5.375 C42.37286566 8.12073132 42.13227564 10.31580343 42.14044189 13.39033508 C42.14615204 14.67322418 42.15186218 15.95611328 42.15774536 17.27787781 C42.15899079 18.70779409 42.16011587 20.13771049 42.16113281 21.56762695 C42.16575998 23.06718061 42.17078451 24.56673308 42.17617798 26.06628418 C42.18931441 30.14694939 42.19574944 34.22759813 42.20018864 38.30828118 C42.20311758 40.85682603 42.20722206 43.40536635 42.21169281 45.95390892 C42.2253715 53.92504236 42.23503613 61.8961655 42.2388947 69.86730987 C42.24337543 79.073637 42.26092238 88.27981566 42.2898953 97.48609763 C42.31150327 104.59868688 42.32159852 111.71123433 42.32293582 118.82385606 C42.32398456 123.07346339 42.3299068 127.32293122 42.34775543 131.57250404 C42.36422071 135.57061946 42.36639922 139.56849029 42.35761642 143.5666275 C42.3568452 145.03357536 42.3612001 146.50053627 42.37107468 147.9674511 C42.38377093 149.97116553 42.37613412 151.97497797 42.36749268 153.97871399 C42.36969252 155.660316 42.36969252 155.660316 42.3719368 157.37588978 C41.95179527 160.76369856 41.0203873 162.64749062 39 165.375 C36.59336041 166.5783198 35.07784279 166.50860768 32.389328 166.52217102 C31.4177626 166.52932632 30.4461972 166.53648163 29.44519043 166.54385376 C28.37555054 166.54654266 27.30591064 166.54923157 26.20385742 166.55200195 C25.08018265 166.55857315 23.95650787 166.56514435 22.79878235 166.57191467 C19.0676772 166.59168035 15.33661234 166.60331698 11.60546875 166.61328125 C10.33376642 166.61735678 9.06206409 166.6214323 7.75182533 166.62563133 C1.71674245 166.64435102 -4.3183159 166.65891425 -10.35342008 166.6672433 C-17.31908579 166.67701539 -24.2844337 166.70333357 -31.24998742 166.74374419 C-37.28346845 166.77754568 -43.3167952 166.78938851 -49.35037804 166.79344749 C-51.91685836 166.79832788 -54.48333493 166.80998281 -57.04975319 166.82848549 C-60.63865276 166.85275328 -64.22671786 166.85193414 -67.81567383 166.8449707 C-68.87924103 166.85778076 -69.94280823 166.87059082 -71.03860474 166.88378906 C-75.19590773 166.85433312 -78.30546476 166.66932077 -82.15660095 165.03733826 C-85.13833171 160.73095875 -84.71218223 156.42531913 -84.67871094 151.30761719 C-84.69068512 150.17871567 -84.7026593 149.04981415 -84.71499634 147.88670349 C-84.74724402 144.14808084 -84.74235511 140.41061362 -84.734375 136.671875 C-84.74282134 134.07358396 -84.7524609 131.47529655 -84.76324463 128.87701416 C-84.77965605 123.42615836 -84.7772793 117.97574831 -84.76171875 112.52490234 C-84.74422376 106.23745552 -84.77052941 99.95127959 -84.81868529 93.66402125 C-84.86336786 87.6037117 -84.86879283 81.54405725 -84.85883331 75.48355865 C-84.85919298 72.91118147 -84.87047172 70.33878149 -84.89293671 67.76650238 C-84.92021956 64.16335405 -84.90274138 60.56304039 -84.87402344 56.95996094 C-84.89133514 55.90097092 -84.90864685 54.8419809 -84.92648315 53.75090027 C-84.8139686 47.14183051 -83.55240221 43.74872121 -78.76790905 39.12016678 C-76.92364423 37.29962646 -75.6279013 35.44900595 -74.26196289 33.25390625 C-54.95508326 2.88952756 -33.79652645 -0.90704645 0 0 Z M-30 16.375 C-30.20997658 27.75816769 -30.20997658 27.75816769 -30.38793945 39.1418457 C-30.42022726 40.56985091 -30.45360069 41.99783215 -30.48828125 43.42578125 C-30.49452515 44.16614624 -30.50076904 44.90651123 -30.50720215 45.66931152 C-30.63165287 50.10201991 -30.71651816 51.09151816 -34 54.375 C-51.325 54.87 -51.325 54.87 -69 55.375 C-69 87.055 -69 118.735 -69 151.375 C-37.32 151.375 -5.64 151.375 27 151.375 C27 106.825 27 62.275 27 16.375 C8.19 16.375 -10.62 16.375 -30 16.375 Z " fill="#0083E0" transform="translate(273,-2.375)"/>
<path d="M0 0 C-0.51540662 4.7275228 -2.71292703 7.95192803 -5.375 11.75 C-6.29153061 13.09034925 -7.2068511 14.43152661 -8.12109375 15.7734375 C-8.59659668 16.46791992 -9.07209961 17.16240234 -9.56201172 17.87792969 C-11.90896455 21.34137858 -14.17323956 24.85715008 -16.4375 28.375 C-16.89431152 29.08301758 -17.35112305 29.79103516 -17.82177734 30.52050781 C-18.75117716 31.96102866 -19.68021313 33.4017843 -20.60888672 34.84277344 C-21.98863267 36.98237246 -23.37074361 39.12042086 -24.75390625 41.2578125 C-25.43187256 42.3082373 -25.43187256 42.3082373 -26.12353516 43.37988281 C-27.04427947 44.79807075 -27.9724132 46.21148737 -28.90771484 47.62011719 C-31.21274375 51.11180615 -33.33994346 54.58189132 -35.22265625 58.3203125 C-42.33285454 71.80359257 -53.28803035 77.2737715 -66.50195312 84.13427734 C-70.04065002 86.02168114 -73.48656426 88.01513922 -76.921875 90.08203125 C-78.01733643 90.73921143 -79.11279785 91.3963916 -80.24145508 92.07348633 C-82.33716339 93.33673851 -84.43082883 94.60338732 -86.5222168 95.8737793 C-87.93241089 96.70969604 -87.93241089 96.70969604 -89.37109375 97.5625 C-90.19536865 98.05878906 -91.01964355 98.55507812 -91.86889648 99.06640625 C-94 100 -94 100 -97 99 C-98.06026319 96.47498015 -98.8816095 94.12064502 -99.625 91.5 C-99.8422876 90.73969482 -100.0595752 89.97938965 -100.28344727 89.19604492 C-105.63994459 69.17358571 -102.76748426 49.09425159 -92.875 30.875 C-82.19500902 13.5373523 -65.32276366 0.96633178 -45.48339844 -3.86621094 C-31.22965102 -6.86946415 -13.2940805 -6.64704025 0 0 Z " fill="#009CDB" transform="translate(447,59)"/>
<path d="M0 0 C-0.63858858 17.8804803 -10.84890664 34.44040141 -23.42285156 46.59521484 C-38.54596503 60.06555461 -58.49907044 66.01152966 -78.484375 65.33984375 C-98.65325247 64.12988334 -116.68275751 54.29688708 -130.125 39.5 C-131.42468207 38.00693962 -132.71942 36.50947595 -134 35 C-132.67712181 31.03136543 -131.12945175 30.64950726 -127.515625 28.62890625 C-126.95306 28.31019058 -126.390495 27.99147491 -125.81088257 27.6631012 C-123.96285945 26.61918662 -122.10753824 25.58937916 -120.25 24.5625 C-117.65743669 23.12623387 -115.06615705 21.68770616 -112.4765625 20.24609375 C-111.82976532 19.88713013 -111.18296814 19.5281665 -110.51657104 19.1583252 C-106.73471076 17.03940248 -103.10503678 14.79668842 -99.5234375 12.34765625 C-86.77522187 3.797254 -75.60429554 2.3446284 -60.39620972 2.12762451 C-54.98384963 2.04891618 -49.59446173 1.79078447 -44.19140625 1.46875 C-43.35559525 1.41957428 -42.51978424 1.37039856 -41.65864563 1.31973267 C-39.97406324 1.22038339 -38.28949789 1.12074466 -36.60494995 1.02081299 C-24.38902644 0.30255643 -12.23834545 -0.13150533 0 0 Z " fill="#00A3DA" transform="translate(492,137)"/>
<path d="M0 0 C10.56 0 21.12 0 32 0 C32 39.93 32 79.86 32 121 C21.44 121 10.88 121 0 121 C0 81.07 0 41.14 0 0 Z " fill="#0063E6" transform="translate(72,81)"/>
<path d="M0 0 C10.89 0 21.78 0 33 0 C33 31.02 33 62.04 33 94 C22.11 94 11.22 94 0 94 C0 62.98 0 31.96 0 0 Z " fill="#006DE4" transform="translate(124,108)"/>
<path d="M0 0 C3.1359157 1.77984405 3.84102736 2.52308207 5 6 C5.0229613 8.48471254 4.9879381 10.93664946 4.90380859 13.41796875 C4.86106601 14.97946664 4.81931385 16.54099187 4.77841187 18.10253906 C4.75589733 18.93047974 4.7333828 19.75842041 4.710186 20.6114502 C4.5826377 25.9325636 4.54031605 31.25511987 4.48885155 36.5774231 C4.43897429 41.24847524 4.35490766 45.91386336 4.19433594 50.58251953 C2.54875479 69.96689069 2.54875479 69.96689069 7.94445801 87.80273438 C12.89647868 92.24646094 18.5446311 94.5912307 25 96 C24.95617187 94.90558594 24.91234375 93.81117188 24.8671875 92.68359375 C25 89 25 89 27.125 86.0625 C30 84 30 84 33.0625 83.4375 C36.85339902 84.16341683 37.63057738 84.93854098 40 88 C41.35772627 91.36515973 42.30563789 94.81209657 43.25 98.3125 C43.518125 99.23740234 43.78625 100.16230469 44.0625 101.11523438 C45.45630943 106.11801466 46.71492584 110.77706953 46 116 C43.84416509 119.60341281 41.13398914 120.40277661 37.26171875 121.484375 C35.40710855 121.92122108 33.54880872 122.34263856 31.6875 122.75 C30.76259766 122.97042969 29.83769531 123.19085938 28.88476562 123.41796875 C23.82635921 124.575614 19.18917294 125.41431878 14 125 C11.5625 123.4375 11.5625 123.4375 10 121 C9.375 117.5625 9.375 117.5625 10 114 C11.83314886 112.07594312 13.88374837 110.62767111 16 109 C15.31897217 108.62190186 14.63794434 108.24380371 13.9362793 107.85424805 C10.85042781 106.13719531 7.7689441 104.41244878 4.6875 102.6875 C3.61564453 102.09259766 2.54378906 101.49769531 1.43945312 100.88476562 C0.41142578 100.30791016 -0.61660156 99.73105469 -1.67578125 99.13671875 C-3.0975769 98.34334106 -3.0975769 98.34334106 -4.5480957 97.53393555 C-8.56480969 95.0210396 -8.56480969 95.0210396 -10 93 C-10.30144284 90.11322234 -10.42000353 87.44130367 -10.40405273 84.55297852 C-10.41091599 83.69089783 -10.41777924 82.82881714 -10.42485046 81.94061279 C-10.44317474 79.08654379 -10.43927291 76.23302155 -10.43359375 73.37890625 C-10.43815296 71.39737264 -10.44345775 69.41584062 -10.44947815 67.43431091 C-10.45842039 63.27897727 -10.45597359 59.12383569 -10.44604492 54.96850586 C-10.43455581 49.64060932 -10.45476029 44.31337558 -10.48396206 38.98556614 C-10.50229935 34.89263184 -10.5020365 30.79985707 -10.49632454 26.70689201 C-10.49617101 24.74247241 -10.50224127 22.77804221 -10.51461601 20.81366158 C-10.52947701 18.06748898 -10.51888513 15.32254974 -10.50170898 12.57641602 C-10.51137695 11.76329453 -10.52104492 10.95017303 -10.53100586 10.1124115 C-10.48401884 6.52883958 -10.30781356 4.41879956 -8.15614319 1.49131775 C-5.22643308 -0.53504521 -3.49306977 -0.50940601 0 0 Z " fill="#0066E6" transform="translate(91,221)"/>
<path d="M0 0 C4.13458775 0.66448732 5.06395773 1.21551013 7.5 4.5625 C7.89970394 7.50452911 8.05742689 10.07343639 8.03344727 13.01538086 C8.04637062 14.29168114 8.04637062 14.29168114 8.05955505 15.59376526 C8.08225016 18.40526791 8.0754695 21.21577661 8.06640625 24.02734375 C8.07164052 25.98263343 8.07791627 27.93792058 8.08518982 29.89320374 C8.09560076 33.99134196 8.09102295 38.08913312 8.07641602 42.18725586 C8.05923302 47.43783159 8.0827139 52.68731254 8.11790562 57.93776608 C8.13987235 61.97586818 8.13843979 66.01370809 8.1301403 70.05185127 C8.12932027 71.98753624 8.13619354 73.92324036 8.15091133 75.85886955 C8.16834263 78.56667098 8.15382711 81.27250226 8.13110352 83.98022461 C8.14279572 84.77882904 8.15448792 85.57743347 8.16653442 86.40023804 C8.09736708 90.4535325 7.70658669 92.30836521 5.11651611 95.49456787 C2.6205603 97.46721661 0.19403416 99.12595332 -2.58203125 100.67578125 C-3.51337891 101.20107422 -4.44472656 101.72636719 -5.40429688 102.26757812 C-6.36400391 102.79802734 -7.32371094 103.32847656 -8.3125 103.875 C-9.29154297 104.42478516 -10.27058594 104.97457031 -11.27929688 105.54101562 C-13.68216116 106.88896388 -16.08901447 108.22914953 -18.5 109.5625 C-17.69691406 110.15160156 -16.89382813 110.74070312 -16.06640625 111.34765625 C-13.5 113.5625 -13.5 113.5625 -12.4375 117 C-12.5 120.5625 -12.5 120.5625 -13.9375 123.5 C-17.40072332 126.28747243 -20.26341739 125.94796135 -24.5 125.5625 C-28.147614 124.95450659 -31.72118806 124.12709438 -35.3125 123.25 C-36.25287109 123.03666016 -37.19324219 122.82332031 -38.16210938 122.60351562 C-39.06380859 122.38759766 -39.96550781 122.17167969 -40.89453125 121.94921875 C-41.70768799 121.75545654 -42.52084473 121.56169434 -43.35864258 121.36206055 C-45.79760022 120.45137918 -46.9507117 119.65037814 -48.5 117.5625 C-49.87759851 110.91791769 -47.61042845 104.02011223 -45.75 97.6875 C-45.49734375 96.75164062 -45.2446875 95.81578125 -44.984375 94.8515625 C-44.7265625 93.954375 -44.46875 93.0571875 -44.203125 92.1328125 C-43.97270508 91.32602051 -43.74228516 90.51922852 -43.50488281 89.68798828 C-42.2569811 87.04847607 -41.02417759 86.00164232 -38.5 84.5625 C-35.10314182 84.68168801 -32.55999385 84.98121305 -29.5625 86.625 C-27.83482198 89.77547168 -28.43915189 93.00825429 -28.5 96.5625 C-27.93490723 96.22927734 -27.36981445 95.89605469 -26.78759766 95.55273438 C-24.23601276 94.05149331 -21.680581 92.5569274 -19.125 91.0625 C-18.23554688 90.53785156 -17.34609375 90.01320313 -16.4296875 89.47265625 C-15.15351563 88.72822266 -15.15351563 88.72822266 -13.8515625 87.96875 C-13.06604004 87.50791016 -12.28051758 87.04707031 -11.47119141 86.57226562 C-9.5 85.5625 -9.5 85.5625 -7.5 85.5625 C-7.50888245 84.57135696 -7.51776489 83.58021393 -7.5269165 82.55903625 C-7.60802288 73.21590662 -7.66797523 63.87284847 -7.70724869 54.5294466 C-7.72811847 49.72594334 -7.75642499 44.9227244 -7.80175781 40.11938477 C-7.8452373 35.48337703 -7.86914169 30.84764267 -7.87950897 26.21144676 C-7.88689657 24.44319543 -7.90132293 22.67495897 -7.92292023 20.90682411 C-7.95198273 18.42884684 -7.9559549 15.95199739 -7.95410156 13.47387695 C-7.97567322 12.3787529 -7.97567322 12.3787529 -7.99768066 11.26150513 C-7.96886056 7.6973929 -7.5653263 5.66932863 -5.69036865 2.60319519 C-3.5 0.5625 -3.5 0.5625 0 0 Z " fill="#009EDB" transform="translate(415.5,220.4375)"/>
<path d="M0 0 C14.729186 7.04439331 24.36988032 22.43668883 30.0703125 37.2578125 C31.95465879 42.81584232 33.10275573 47.88323128 33.04296875 53.76953125 C33.03676514 54.56593018 33.03056152 55.3623291 33.02416992 56.18286133 C33.01619385 56.78251709 33.00821777 57.38217285 33 58 C25.47881048 58.43402549 17.9572123 58.86037758 10.43530273 59.28173828 C7.88377351 59.42553625 5.33233769 59.57100298 2.78100586 59.71826172 C-11.15563066 60.52151032 -25.03731672 61.27124198 -39 61 C-37.41646548 56.85576364 -35.38639274 53.38704936 -32.875 49.75 C-28.1206399 42.74773248 -23.54624611 35.63884807 -19 28.5 C-14.40679264 21.29788535 -9.80258026 14.10657773 -5.0625 7 C-4.65580078 6.38962891 -4.24910156 5.77925781 -3.83007812 5.15039062 C-1.13721054 1.13721054 -1.13721054 1.13721054 0 0 Z " fill="#00A9D9" transform="translate(459,66)"/>
<path d="M0 0 C10.56 0 21.12 0 32 0 C32 21.78 32 43.56 32 66 C21.44 66 10.88 66 0 66 C0 44.22 0 22.44 0 0 Z " fill="#0059E8" transform="translate(20,136)"/>
<path d="M0 0 C2.21259735 1.62387224 2.91006892 2.49906556 3.39872742 5.22099304 C3.40983047 6.08481094 3.42093353 6.94862885 3.43237305 7.83862305 C3.46206429 9.30980843 3.46206429 9.30980843 3.49235535 10.81071472 C3.49874527 11.86704605 3.50513519 12.92337738 3.51171875 14.01171875 C3.53864555 15.63676079 3.53864555 15.63676079 3.56611633 17.29463196 C3.62034985 20.75888157 3.65415744 24.22299238 3.6875 27.6875 C3.72066149 30.03452458 3.75515004 32.38153081 3.79101562 34.72851562 C3.87608374 40.48555262 3.94437832 46.2426073 4 52 C4.598125 51.51273438 5.19625 51.02546875 5.8125 50.5234375 C8.74220063 48.48311028 10.4955156 48.56193945 14 49 C16.80803082 50.44196177 17.75137334 51.38672091 18.9375 54.3125 C19.06235838 59.68141039 15.91412163 63.28055899 12.41796875 67.05078125 C11.01584629 68.47928419 9.6054429 69.89969923 8.1875 71.3125 C7.48818359 72.04017578 6.78886719 72.76785156 6.06835938 73.51757812 C3.06882251 76.5283387 0.82771411 78.69781866 -3.19921875 80.16796875 C-10.06891112 79.75597883 -14.29141781 73.95771299 -18.75 69.25 C-19.43449219 68.5590625 -20.11898437 67.868125 -20.82421875 67.15625 C-24.8131458 62.95405359 -27.08998556 60.08152403 -27 54 C-25.5 51.0625 -25.5 51.0625 -23 49 C-19.4375 48.5 -19.4375 48.5 -16 49 C-14.28515625 50.53125 -14.28515625 50.53125 -13 52 C-12.99413376 51.42228348 -12.98826752 50.84456696 -12.98222351 50.24934387 C-12.91823646 44.23060537 -12.83380307 38.21239895 -12.73754883 32.1940918 C-12.70431649 29.9487205 -12.67627931 27.703266 -12.65356445 25.45776367 C-12.61998798 22.22799257 -12.56766927 18.99898273 -12.51171875 15.76953125 C-12.50213387 14.26613945 -12.50213387 14.26613945 -12.49235535 12.7323761 C-12.30695241 3.92222294 -12.30695241 3.92222294 -9 0 C-5.85000502 -1.57499749 -3.36459118 -0.70833498 0 0 Z " fill="#0083E0" transform="translate(256,176)"/>
<path d="M0 0 C1.28490829 -0.01268417 2.56981659 -0.02536835 3.8936615 -0.03843689 C5.29312298 -0.03638531 6.69258335 -0.03339717 8.09204102 -0.02954102 C9.53166449 -0.03410368 10.97128579 -0.0394095 12.41090393 -0.04542542 C15.42620702 -0.05435403 18.44124523 -0.05193668 21.45654297 -0.04199219 C25.3147727 -0.03050573 29.17208675 -0.05070899 33.03019619 -0.07990932 C36.00285114 -0.098284 38.97528719 -0.09797639 41.9479847 -0.0922718 C43.37011054 -0.09211873 44.79225135 -0.09815212 46.21432304 -0.11056328 C48.20533071 -0.12549138 50.19648917 -0.11215679 52.1875 -0.09765625 C53.31905014 -0.09749008 54.45060028 -0.09732391 55.61643982 -0.09715271 C59.3571022 0.51916411 61.03080084 1.7065184 63.65844727 4.40405273 C64.22094727 7.90405273 64.22094727 7.90405273 63.65844727 11.40405273 C61.47924069 14.33237691 60.29268833 15.2951616 56.6607666 15.91871643 C55.49146606 15.92491501 54.32216553 15.93111359 53.11743164 15.9375 C52.1459594 15.95042336 52.1459594 15.95042336 51.15486145 15.96360779 C49.02023017 15.98625732 46.88691273 15.97953256 44.75219727 15.97045898 C43.26533621 15.97569483 41.77847848 15.98197116 40.29162598 15.98924255 C37.17790071 15.99964455 34.06463252 15.99508828 30.95092773 15.98046875 C26.96237502 15.96327364 22.9752619 15.98678383 18.98686981 16.02195835 C15.91728181 16.04392712 12.84803866 16.04249248 9.77839661 16.03419304 C8.30799276 16.03337334 6.83756364 16.04024039 5.36723328 16.05496407 C3.31041144 16.07240472 1.25618082 16.05787915 -0.80053711 16.03515625 C-1.96983765 16.03419449 -3.13913818 16.03323273 -4.34387207 16.03224182 C-7.34155273 15.40405273 -7.34155273 15.40405273 -9.75036621 13.09117126 C-11.34155273 10.40405273 -11.34155273 10.40405273 -11.34155273 6.77905273 C-9.51266096 0.606543 -6.04680531 0.02889292 0 0 Z " fill="#0083E0" transform="translate(225.341552734375,94.595947265625)"/>
<path d="M0 0 C0.97147224 -0.01073296 0.97147224 -0.01073296 1.96257019 -0.02168274 C4.09751528 -0.03855391 6.2303554 -0.0191811 8.36523438 0.00219727 C9.85209324 0.0013684 11.33895201 -0.00109166 12.82580566 -0.00511169 C15.93965283 -0.00796856 19.05278025 0.00671906 22.16650391 0.03417969 C26.15493162 0.0682636 30.14207251 0.06224395 34.13056183 0.04351711 C37.20016171 0.0329409 40.26946291 0.04189031 43.33903503 0.05690193 C44.80941378 0.06207973 46.27982378 0.06160678 47.75019836 0.05535698 C49.80680232 0.04989671 51.86157375 0.07030032 53.91796875 0.09765625 C55.08726929 0.10385483 56.25656982 0.11005341 57.46130371 0.11643982 C61.09322544 0.73999465 62.2797778 1.70277934 64.45898438 4.63110352 C65.02148438 8.13110352 65.02148438 8.13110352 64.45898438 11.63110352 C61.84737183 14.30373696 60.17233912 15.51181764 56.46166992 16.13230896 C54.79551636 16.13255821 54.79551636 16.13255821 53.09570312 16.1328125 C51.83089111 16.14219345 50.5660791 16.1515744 49.26293945 16.16123962 C47.89078085 16.15076093 46.5186288 16.13939187 45.14648438 16.12719727 C43.73071214 16.12735235 42.31493947 16.12884295 40.89916992 16.13160706 C37.93682 16.13298918 34.97495535 16.12046514 32.01269531 16.09765625 C28.2229721 16.06927148 24.4340547 16.07201108 20.64427185 16.08474636 C17.72222051 16.0917144 14.80035414 16.08390157 11.87832642 16.07148933 C10.48134064 16.06698571 9.08433493 16.0666285 7.68734741 16.07055473 C5.73228673 16.07347764 3.77723019 16.05476162 1.82226562 16.03515625 C0.71149658 16.02975327 -0.39927246 16.02435028 -1.54370117 16.01878357 C-4.95174682 15.57797853 -6.83629913 14.73342076 -9.54101562 12.63110352 C-10.60351562 9.25610352 -10.60351562 9.25610352 -10.54101562 5.63110352 C-7.64143994 0.74643242 -5.57625335 0.00458652 0 0 Z " fill="#0083E0" transform="translate(224.541015625,119.368896484375)"/>
<path d="M0 0 C0.65871597 -0.0049649 1.31743195 -0.00992981 1.99610901 -0.01504517 C4.17848753 -0.02966858 6.3607934 -0.03646852 8.54321289 -0.04199219 C10.05774437 -0.04774285 11.57227582 -0.0535006 13.08680725 -0.05926514 C16.26360412 -0.06977519 19.44037568 -0.07561803 22.6171875 -0.07910156 C26.69070514 -0.08459079 30.76388928 -0.10862762 34.83730221 -0.13707352 C37.96595747 -0.15568221 41.09453205 -0.16090451 44.22323799 -0.16243744 C45.72517282 -0.16546779 47.2271061 -0.1735092 48.72898674 -0.18662262 C50.82869867 -0.20364931 52.92759109 -0.20181194 55.02734375 -0.1953125 C56.82032143 -0.20078094 56.82032143 -0.20078094 58.64952087 -0.20635986 C61.57836914 0.16113281 61.57836914 0.16113281 63.46290588 1.56231689 C65.5123298 4.4997974 65.11460545 7.73637023 64.57836914 11.16113281 C62.76673647 13.83544771 61.70075837 14.1203364 58.57836914 15.16113281 C56.60144233 15.26495776 54.62121304 15.3097113 52.64160156 15.32226562 C51.41990768 15.33187317 50.19821381 15.34148071 48.9394989 15.35137939 C47.60428047 15.35622791 46.26905986 15.36050661 44.93383789 15.36425781 C43.56244404 15.37001259 42.1910502 15.37577028 40.81965637 15.38153076 C37.94389472 15.39203204 35.06816094 15.39788018 32.19238281 15.40136719 C28.51712902 15.40684552 24.8422469 15.43086263 21.16710949 15.45933914 C18.33342939 15.47801461 15.49983788 15.48317375 12.66610146 15.48470306 C10.65538362 15.48918198 8.64471329 15.50780552 6.63407898 15.52667236 C5.40292862 15.52367126 4.17177826 15.52067017 2.90332031 15.51757812 C1.82426926 15.52122375 0.7452182 15.52486938 -0.36653137 15.52862549 C-3.97414011 15.09467242 -6.35949848 14.1043239 -9.42163086 12.16113281 C-10.45713811 8.60157664 -10.81708116 6.31706446 -9.60913086 2.78613281 C-7.10097988 -0.64607379 -3.96245778 0.02264977 0 0 Z " fill="#0083E0" transform="translate(224.421630859375,70.8388671875)"/>
<path d="M0 0 C0.90234375 -0.01546875 1.8046875 -0.0309375 2.734375 -0.046875 C9.28411178 -0.00811916 9.28411178 -0.00811916 12.59765625 2.34375 C14.50904068 5.28270322 14.50203693 7.05746104 14 10.5 C12.22015595 13.6359157 11.47691793 14.34102736 8 15.5 C5.02551952 15.77287085 2.04815843 15.77709694 -0.9375 15.8125 C-1.74896484 15.84150391 -2.56042969 15.87050781 -3.39648438 15.90039062 C-9.34698824 15.96384965 -9.34698824 15.96384965 -12.53515625 13.69921875 C-14.6845807 10.47221617 -14.54096424 8.28674967 -14 4.5 C-10.57825433 -0.82271549 -5.7134218 -0.09794437 0 0 Z " fill="#0083E0" transform="translate(252,408.5)"/>
<path d="M0 0 C0.90234375 -0.01546875 1.8046875 -0.0309375 2.734375 -0.046875 C9.28411178 -0.00811916 9.28411178 -0.00811916 12.59765625 2.34375 C14.50904068 5.28270322 14.50203693 7.05746104 14 10.5 C12.22015595 13.6359157 11.47691793 14.34102736 8 15.5 C5.02551952 15.77287085 2.04815843 15.77709694 -0.9375 15.8125 C-1.74896484 15.84150391 -2.56042969 15.87050781 -3.39648438 15.90039062 C-9.34698824 15.96384965 -9.34698824 15.96384965 -12.53515625 13.69921875 C-14.6845807 10.47221617 -14.54096424 8.28674967 -14 4.5 C-10.57825433 -0.82271549 -5.7134218 -0.09794437 0 0 Z " fill="#0083E0" transform="translate(252,349.5)"/>
<path d="M0 0 C0.90234375 -0.01546875 1.8046875 -0.0309375 2.734375 -0.046875 C9.2878044 -0.00809731 9.2878044 -0.00809731 12.58984375 2.34765625 C14.55638139 5.3492137 14.64678348 6.97862329 14 10.5 C11.95824318 13.29918274 10.35370692 15.20402712 6.87280273 15.96508789 C4.37608126 16.1371783 1.93888524 16.13298839 -0.5625 16.0625 C-1.41263672 16.07345703 -2.26277344 16.08441406 -3.13867188 16.09570312 C-7.0619778 16.04954658 -9.30337133 15.99455318 -12.55859375 13.68359375 C-14.68408279 10.46367946 -14.53823255 8.26762785 -14 4.5 C-10.57825433 -0.82271549 -5.7134218 -0.09794437 0 0 Z " fill="#0084E0" transform="translate(252,467.5)"/>
</svg>
