<?xml version="1.0" encoding="iso-8859-1"?>
<!-- Uploaded to: SVG Repo, www.svgrepo.com, Generator: SVG Repo Mixer Tools -->
<svg height="800px" width="800px" version="1.1" id="Layer_1" xmlns="http://www.w3.org/2000/svg" xmlns:xlink="http://www.w3.org/1999/xlink" 
	 viewBox="0 0 503.05 503.05" xml:space="preserve">
<g transform="translate(1 1)">
	<path style="fill:#FFD0A1;" d="M378.575,173.325c0,0-68.3-25.6-68.3-85.3c-17.1,29-119.5,34.1-153.6,34.1
		c0,17.1-8.5,51.2-17.1,68.3l34.1,25.6v-8.5c0-9.4,7.7-17.1,17.1-17.1h34.1c9.4,0,17.1,7.7,17.1,17.1v8.5h17.1v-8.5
		c0-9.4,7.7-17.1,17.1-17.1h34.1c9.4,0,17.1,7.7,17.1,17.1v8.5L378.575,173.325l-51.2,42.7c0,14.5-11.1,25.6-25.6,25.6h-17.1
		c-14.5,0-25.6-11.1-25.6-25.6h-17.1c0,14.5-11.1,25.6-25.6,25.6h-17.1c-14.5,0-25.6-11.1-25.6-25.6l-34.1-25.6l-17-17.1
		c-9.4,0-17.1,7.7-17.1,17.1v34.1c0,9.4,7.7,17.1,17.1,17.1c0,0,25.6,93.9,85.3,136.5h93.9c51.2-42.7,76.8-136.6,76.8-136.6
		c9.4,0,17.1-7.7,17.1-17.1v-34.1C395.675,181.025,387.975,173.325,378.575,173.325L378.575,173.325z"/>
	<path style="fill:#80D6FA;" d="M88.475,378.125v102.4v17h324.3v-119.4H88.475z M498.075,361.025l-34.1,59.7l34.1,59.7h-85.3v-102.3
		v-17.1H498.075z M88.475,378.125v102.4h-85.4l34.1-59.7l-34.1-59.8h85.3v17.1H88.475z"/>
	<path style="fill:#AAB1BA;" d="M276.175,429.325l-13.7,11.1l6,17.1l-17.1-7.7l-17.1,7.7l6-17.1l-15.4-11.1h17.1l8.5-17.1l8.5,17.1
		H276.175z M190.875,429.325l-13.7,11.1l6,17.1l-17.1-7.7l-17.1,7.7l6-17.1l-15.4-11.1h17.1l8.5-17.1l8.5,17.1H190.875z
		 M361.475,429.325l-13.7,11.1l6,17.1l-17.1-7.7l-17.1,7.7l6-17.1l-15.4-11.1h17.1l8.5-17.1l8.5,17.1H361.475z"/>
	<path style="fill:#AE938D;" d="M378.575,122.125v51.2c0,0-68.3-25.6-68.3-85.3c-17.1,29-119.5,34.1-153.6,34.1
		c0,15.1-6.7,43.7-14.2,61.9c-1.3,3.1-7.2,11.9-15.7-0.2c-1.6-2.3-4.3-10.5-4.3-10.5s-18.7-16.5-17.1-34.1
		c1.6-17,0-136.5,145.1-136.5c30.7,0,51.2,8.5,42.7,25.6C378.575,28.225,378.575,122.125,378.575,122.125"/>
	<g>
		<path style="fill:#E4F2DE;" d="M327.375,207.425v8.5c0,14.5-11.1,25.6-25.6,25.6h-17.1c-14.5,0-25.6-11.1-25.6-25.6v-8.5
			c0-9.4,7.7-17.1,17.1-17.1h34.1C319.675,190.325,327.375,198.025,327.375,207.425L327.375,207.425z M242.075,207.425v8.5
			c0,14.5-11.1,25.6-25.6,25.6h-17.1c-14.5,0-25.6-11.1-25.6-25.6v-8.5c0-9.4,7.7-17.1,17.1-17.1h34.1
			C234.375,190.325,242.075,198.025,242.075,207.425L242.075,207.425z"/>
		<path style="fill:#E4F2DE;" d="M216.475,301.325h68.3c0,0-6,34.1-34.1,34.1S216.475,301.325,216.475,301.325"/>
	</g>
</g>
<path style="fill:#51565F;" d="M354.875,462.925c-0.6,0-1.3-0.1-1.8-0.4l-15.2-6.8l-15.3,6.8c-1.6,0.7-3.6,0.4-4.9-0.8
	c-1.3-1.2-1.8-3.1-1.2-4.8l4.9-13.9l-12.6-9.1c-1.6-1.1-2.2-3.2-1.6-5c0.6-1.9,2.3-3.1,4.3-3.1h14.1l7.3-14.6c0.8-1.5,2.3-2.5,4-2.5
	s3.3,1,4,2.5l7.3,14.6h14.3c1.9,0,3.6,1.2,4.2,3s0.1,3.8-1.4,5l-11.2,9.1l4.8,13.7c0.3,0.6,0.4,1.2,0.4,1.9
	C359.375,460.925,357.375,462.925,354.875,462.925L354.875,462.925z M325.275,434.825l4.1,2.9c1.6,1.2,2.3,3.3,1.6,5.1l-2.5,7.2
	l7.5-3.4c1.2-0.5,2.5-0.5,3.7,0l7.5,3.4l-2.5-7.2c-0.6-1.8-0.1-3.8,1.4-5l3.8-3.1h-4.4c-1.7,0-3.3-1-4-2.5l-4.5-9l-4.5,9
	c-0.8,1.5-2.3,2.5-4,2.5h-3.2V434.825z M269.475,462.925c-0.6,0-1.3-0.1-1.8-0.4l-15.2-6.8l-15.2,6.8c-1.6,0.7-3.6,0.4-4.9-0.8
	c-1.3-1.2-1.8-3.1-1.2-4.8l4.9-13.9l-12.6-9.1c-1.6-1.1-2.2-3.2-1.6-5s2.3-3.1,4.3-3.1h14.3l7.3-14.6c0.8-1.5,2.3-2.5,4-2.5l0,0
	c1.7,0,3.3,1,4,2.5l7.3,14.6h14.3c1.9,0,3.6,1.2,4.2,3s0.1,3.8-1.4,5l-11.2,9.1l4.8,13.7c0.3,0.6,0.4,1.2,0.4,1.9
	C273.975,460.925,271.975,462.925,269.475,462.925L269.475,462.925z M239.875,434.825l4.1,2.9c1.6,1.2,2.3,3.3,1.6,5.1l-2.5,7.2
	l7.5-3.4c1.2-0.5,2.5-0.5,3.7,0l7.5,3.4l-2.5-7.2c-0.6-1.8-0.1-3.8,1.4-5l3.8-3.1h-4.4c-1.7,0-3.3-1-4-2.5l-4.5-9l-4.5,9
	c-0.8,1.5-2.3,2.5-4,2.5h-3.2V434.825z M150.075,462.925c-1.1,0-2.2-0.4-3-1.2c-1.3-1.2-1.8-3.1-1.2-4.8l4.9-13.9l-12.6-9.1
	c-1.6-1.1-2.2-3.2-1.6-5s2.3-3.1,4.3-3.1h14.3l7.3-14.6c0.8-1.5,2.3-2.5,4-2.5s3.3,1,4,2.5l7.3,14.6h14.3c1.9,0,3.6,1.2,4.2,3
	s0.1,3.8-1.4,5l-11.2,9.1l4.8,13.7c0.3,0.6,0.4,1.2,0.4,1.9c0,2.5-2,4.5-4.5,4.5c-0.6,0-1.3-0.1-1.9-0.4l-15.2-6.8l-15.2,6.8
	C151.275,462.825,150.675,462.925,150.075,462.925z M154.575,434.825l4.1,2.9c1.6,1.2,2.3,3.3,1.6,5.1l-2.5,7.2l7.5-3.4
	c1.2-0.5,2.5-0.5,3.7,0l7.5,3.4l-2.5-7.2c-0.6-1.8-0.1-3.8,1.4-5l3.8-3.1h-4.4c-1.7,0-3.3-1-4-2.5l-4.5-9l-4.5,9
	c-0.8,1.5-2.3,2.5-4,2.5h-3.2V434.825z M413.675,502.825h-324.2c-2.6,0-4.3-1.7-4.3-4.3v-132.2h-73.4l30.7,53.8
	c0.9,1.7,0.9,2.6,0,4.3l-30.7,53.8h43.5c2.6,0,4.3,1.7,4.3,4.3c0,2.6-1.7,4.3-4.3,4.3h-51.2c-1.7,0-2.6-0.9-3.4-1.7
	c-0.9-1.7-0.9-2.6,0-4.3l33.3-58l-33.3-58c-0.9-1.7-0.9-2.6,0-4.3c0.9-1.7,2.6-1.7,3.4-1.7h85.3c2.6,0,4.3,1.7,4.3,4.3v132.3h315.7
	v-133.4c0-2.6,1.7-4.3,4.3-4.3h85.3c1.7,0,2.6,0.9,3.4,1.7c0.9,1.7,0.9,2.6,0,4.3l-33.3,58l33.3,58c0.9,1.7,0.9,2.6,0,4.3
	c-0.9,1.7-2.6,1.7-3.4,1.7h-51.2c-2.6,0-4.3-1.7-4.3-4.3s1.7-4.3,4.3-4.3h43.5l-30.7-53.8c-0.9-1.7-0.9-2.6,0-4.3l30.7-53.8h-73.4
	v133.3C417.975,501.125,416.275,502.825,413.675,502.825z M379.575,383.325h-256c-2.6,0-4.3-1.7-4.3-4.3c0-2.6,1.7-4.3,4.3-4.3h256
	c2.6,0,4.3,1.7,4.3,4.3C383.875,381.625,382.175,383.325,379.575,383.325z M326.475,349.525c-1.6-1.2-2.5-5-0.5-7.1
	c24.3-25.1,49.5-99.8,50.3-100.7c0.9-1.7,1.6-2.6,3.3-2.6c6.8,0,12.8-6,12.8-12.8v-34.1c0-6.8-6-12.8-12.8-12.8
	c-2.6,0-4.3-1.7-4.3-4.3v-51.2c0-3.4-0.9-89.6-81.1-89.6c-1.7,0-2.6-0.9-3.4-1.7c-0.9-0.9-0.9-2.6,0-4.3c2.6-5.1,0.9-8.5,0.9-9.4
	c-4.3-6.8-18.8-10.2-39.3-10.2c-139.1,0-140.8,127.1-140.8,132.3c0,2.6-1.7,4.3-4.3,4.3c-2.6,0-4.3-1.7-4.3-4.3
	c0-1.7,1.7-140.8,149.3-140.8c14.5,0,39.3,1.7,46.9,14.5c1.7,2.6,2.6,6,1.7,11.1c82.8,4.3,83.6,97.3,83.6,98.1v47.8
	c9.4,1.7,17.1,10.2,17.1,20.5v34.1c0,11.1-7.7,19.6-17.9,21.3c-0.7,2-1.4,4-2.2,6c-1,2.9-2.1,5.7-3.2,8.6c-1.3,3.5-2.7,7-4.1,10.5
	c-1.6,4-3.2,7.9-4.9,11.9c-1.8,4.3-3.7,8.5-5.6,12.7c-2,4.3-4,8.6-6.1,12.9c-2.1,4.2-4.3,8.4-6.6,12.5c-2.2,3.9-4.5,7.7-6.9,11.5
	c-2.2,3.4-4.6,6.7-7.1,9.9c-1,1.3-2.1,2.5-3.2,3.7c-0.6,0.7-1.3,1.3-2,1.9C330.375,351.025,328.275,350.825,326.475,349.525z
	 M175.375,348.325c-3.7-1.2-6.4-4.5-8.4-7.1c-2.6-3.2-5-6.6-7.2-10.1c-5-7.7-9.4-15.9-13.5-24.1c-4.1-8.4-7.9-16.9-11.5-25.5
	c-3-7.3-5.9-14.7-8.7-22.1c-1.7-4.5-3.3-9-4.9-13.6c-10.2-1.7-17.9-10.2-17.9-21.3v-34.1c0-11.9,8.4-20.3,20.3-20.3
	c2.6,0,4.3,1.7,4.3,4.3c0,1.7,1.9,11.1,11.2,12.8c7.7-17.1,15.4-47.8,15.4-64c0-2.6,1.7-4.3,4.3-4.3c52.9,0,134.7-8.5,149.2-32.4
	c0.9-1.7,2.6-2.6,5.1-1.7c1.7,0.9,3.4,2.6,3.4,4.3c0,31.6,32.4,64.9,33.3,64.9c1.7,1.7,1.7,4.3,0,6s-4.3,1.7-6,0s-29-29.9-34.1-61.4
	c-30.8,25.3-124.7,27.9-146,27.9c-0.9,17.1-8.5,46.1-16.2,62.3l24.7,18.8c0-11.9,9.4-21.3,21.3-21.3h34.1c11.9,0,21.3,9.4,21.3,21.3
	v8.5c0,16.2-13.7,29.9-29.9,29.9h-17.1c-15.4,0-29-11.9-29.9-27.3l-31.6-23.9c-12.8-0.9-17.9-9.4-19.6-16.2
	c-5.1,1.7-9.4,6.8-9.4,11.9v34.1c0,6.8,6,12.8,12.8,12.8c1.7,0,3.4,0.9,4.3,2.6c0,0.6,0.4,1.3,0.6,1.8c0.5,1.6,1.1,3.2,1.6,4.8
	c1.9,5.4,4,10.9,6.1,16.2c2.9,7.3,5.9,14.6,9.1,21.9c3.5,7.9,7.2,15.8,11.2,23.5c3.8,7.2,7.9,14.4,12.5,21.1c2,2.9,4.1,5.6,6.4,8.3
	c1,1.2,2.4,3,3.4,4.3c1.4,1.9,1.1,4.9-0.5,6.4C177.775,349.525,176.475,348.625,175.375,348.325z M180.075,216.925
	c0,11.9,9.4,21.3,21.3,21.3h17.1c11.9,0,21.3-9.4,21.3-21.3v-8.5c0-6.8-6-12.8-12.8-12.8h-34.1c-6.8,0-12.8,6-12.8,12.8
	L180.075,216.925L180.075,216.925L180.075,216.925z M251.575,340.725c-25.6,0-35.8-24.7-38.4-37.5c0-0.9,0-2.6,0.9-3.4
	c0.9-0.9,1.7-1.7,3.4-1.7h68.3c0.9,0,2.6,0.9,3.4,1.7c0.9,0.9,0.9,2.6,0.9,3.4C287.375,315.925,277.175,340.725,251.575,340.725z
	 M222.575,306.525c2.6,8.5,10.2,25.6,29,25.6s26.5-17.1,29-25.6H222.575z M302.775,246.825h-17.1c-16.2,0-29.9-13.7-29.9-29.9v-8.5
	c0-11.9,9.4-21.3,21.3-21.3h34.1c11.9,0,21.3,9.4,21.3,21.3l27.3-20.5c1.7-1.7,4.3-0.9,6,0.9c0.9,0.9,0.9,1.7,0.9,2.6
	c0,1.7-0.9,2.6-1.7,3.4l-32.3,24.7C331.775,234.925,318.175,246.825,302.775,246.825z M277.175,195.625c-6.8,0-12.8,6-12.8,12.8v8.5
	c0,11.9,9.4,21.3,21.3,21.3h17.1c11.9,0,21.3-9.4,21.3-21.3l0,0l0,0v-8.5c0-6.8-6-12.8-12.8-12.8H277.175z"/>
</svg>