<?xml version="1.0" encoding="iso-8859-1"?>
<!-- Uploaded to: SVG Repo, www.svgrepo.com, Generator: SVG Repo Mixer Tools -->
<svg version="1.1" id="Layer_1" xmlns="http://www.w3.org/2000/svg" xmlns:xlink="http://www.w3.org/1999/xlink"
	 viewBox="0 0 512 512" xml:space="preserve">
<polygon style="fill:#3E3B43;" points="393.747,99.225 504.345,99.225 504.345,133.149 338.446,133.149 338.446,99.225 "/>
	<polygon style="fill:#376642;" points="338.446,187.417 338.446,130.191 504.345,130.191 504.345,377.913 338.446,377.913
	338.446,317.159 "/>
	<g>
	<rect x="338.448" y="377.909" style="fill:#3E3B43;" width="165.897" height="28.913"/>
		<polygon style="opacity:0.4;fill:#3E3B43;enable-background:new    ;" points="460.227,99.225 460.227,320.577 460.227,349.489
		338.446,349.489 338.446,377.913 338.446,406.824 504.345,406.824 504.345,377.913 504.345,133.149 504.345,130.191
		504.345,99.225 	"/>
</g>
	<polygon style="fill:#FFDA44;" points="240.651,222.303 240.651,284.625 376.957,284.625 376.957,336.267 459.759,253.463
	376.957,170.661 376.957,222.303 295.457,222.303 "/>
	<path d="M295.457,229.957h81.5c4.229,0,7.655-3.427,7.655-7.655v-33.159l64.321,64.321l-64.321,64.321v-33.16
	c0-4.229-3.427-7.655-7.655-7.655H248.306v-54.667c0-4.229-3.428-7.655-7.655-7.655c-4.228,0-7.655,3.427-7.655,7.655v62.323
	c0,4.229,3.428,7.655,7.655,7.655h128.651v43.987c0,3.096,1.865,5.889,4.726,7.073c0.947,0.393,1.941,0.583,2.927,0.583
	c1.992,0,3.95-0.778,5.416-2.242l82.802-82.802c2.99-2.991,2.99-7.837,0-10.827L382.37,165.25c-2.19-2.189-5.482-2.846-8.343-1.659
	c-2.861,1.184-4.726,3.977-4.726,7.073v43.986h-73.845c-4.229,0-7.655,3.427-7.655,7.655S291.228,229.957,295.457,229.957z"/>
	<path d="M512,99.225c0-4.229-3.427-7.655-7.655-7.655H393.747c-4.229,0-7.655,3.427-7.655,7.655s3.427,7.655,7.655,7.655h102.942
	v13.601H346.101V99.225c0-4.229-3.427-7.655-7.655-7.655s-7.655,3.427-7.655,7.655v28.912c0,0.349,0.032,0.69,0.077,1.027
	c-0.045,0.337-0.077,0.678-0.077,1.027v57.225c0,4.229,3.427,7.655,7.655,7.655s7.655-3.427,7.655-7.655v-49.57h150.588v232.41
	H346.101v-53.099c0-4.229-3.427-7.655-7.655-7.655s-7.655,3.427-7.655,7.655v60.754v28.913c0,4.229,3.427,7.655,7.655,7.655h165.899
	c4.229,0,7.655-3.427,7.655-7.655v-28.913V130.191c0-0.349-0.032-0.69-0.077-1.027c0.045-0.337,0.077-0.678,0.077-1.027V99.225z
	 M496.689,399.17H346.101v-13.602h150.588V399.17z"/>
	<path d="M60.86,106.221c4.228,0,7.655-3.427,7.655-7.655s-3.428-7.655-7.655-7.655H7.655C3.428,90.911,0,94.337,0,98.566v89.469
	c0,4.229,3.428,7.655,7.655,7.655H60.86c4.228,0,7.655-3.427,7.655-7.655s-3.428-7.655-7.655-7.655H15.311v-29.424h32.125
	c4.228,0,7.655-3.427,7.655-7.655s-3.428-7.655-7.655-7.655H15.311v-29.423C15.311,106.221,60.86,106.221,60.86,106.221z"/>
	<path d="M164.05,92.569c-3.312-2.629-8.127-2.073-10.755,1.239l-29.496,37.175L94.305,93.808c-2.628-3.312-7.443-3.866-10.755-1.239
	c-3.312,2.627-3.866,7.443-1.239,10.754l31.718,39.977L82.31,183.277c-2.627,3.311-2.073,8.127,1.239,10.754
	c1.408,1.118,3.086,1.659,4.753,1.659c2.256,0,4.491-0.993,6.002-2.898l29.496-37.175l29.496,37.175
	c1.512,1.905,3.746,2.898,6.002,2.898c1.667,0,3.346-0.542,4.753-1.659c3.312-2.627,3.866-7.443,1.239-10.754L133.573,143.3
	l31.718-39.977C167.917,100.012,167.362,95.197,164.05,92.569z"/>
	<path d="M191.819,90.911c-4.228,0-7.655,3.427-7.655,7.655v89.469c0,4.229,3.428,7.655,7.655,7.655c4.228,0,7.655-3.427,7.655-7.655
	V98.566C199.474,94.337,196.046,90.911,191.819,90.911z"/>
	<path d="M224.86,106.221h20.836v81.813c0,4.229,3.428,7.655,7.655,7.655c4.228,0,7.655-3.427,7.655-7.655v-81.813h20.834
	c4.229,0,7.655-3.427,7.655-7.655s-3.427-7.655-7.655-7.655h-56.98c-4.228,0-7.655,3.427-7.655,7.655
	S220.632,106.221,224.86,106.221z"/>
	<path d="M60.86,331.621c4.228,0,7.655-3.427,7.655-7.655s-3.428-7.655-7.655-7.655H7.655c-4.228,0-7.655,3.427-7.655,7.655v89.469
	c0,4.229,3.428,7.655,7.655,7.655H60.86c4.228,0,7.655-3.427,7.655-7.655s-3.428-7.655-7.655-7.655H15.311v-29.423h32.125
	c4.228,0,7.655-3.427,7.655-7.655s-3.428-7.655-7.655-7.655H15.311v-29.424H60.86z"/>
	<path d="M164.05,317.969c-3.312-2.629-8.127-2.073-10.755,1.239l-29.496,37.175l-29.496-37.175
	c-2.628-3.312-7.443-3.867-10.755-1.239c-3.312,2.627-3.866,7.443-1.239,10.754l31.718,39.977L82.31,408.677
	c-2.627,3.311-2.073,8.127,1.239,10.754c1.408,1.118,3.086,1.659,4.753,1.659c2.256,0,4.491-0.993,6.002-2.898l29.496-37.175
	l29.496,37.175c1.512,1.905,3.746,2.898,6.002,2.898c1.667,0,3.346-0.542,4.753-1.659c3.312-2.627,3.866-7.443,1.239-10.754
	L133.573,368.7l31.718-39.977C167.917,325.412,167.362,320.597,164.05,317.969z"/>
	<path d="M191.819,316.311c-4.228,0-7.655,3.427-7.655,7.655v89.469c0,4.229,3.428,7.655,7.655,7.655
	c4.228,0,7.655-3.427,7.655-7.655v-89.469C199.474,319.737,196.046,316.311,191.819,316.311z"/>
	<path d="M281.84,316.311h-56.98c-4.228,0-7.655,3.427-7.655,7.655s3.428,7.655,7.655,7.655h20.836v81.813
	c0,4.229,3.428,7.655,7.655,7.655c4.228,0,7.655-3.427,7.655-7.655v-81.813h20.834c4.229,0,7.655-3.427,7.655-7.655
	S286.069,316.311,281.84,316.311z"/>
</svg>