<?xml version="1.0" encoding="iso-8859-1"?>
<!-- Uploaded to: SVG Repo, www.svgrepo.com, Generator: SVG Repo Mixer Tools -->
<svg height="800px" width="800px" version="1.1" id="Layer_1" xmlns="http://www.w3.org/2000/svg" xmlns:xlink="http://www.w3.org/1999/xlink"
     viewBox="0 0 512.853 512.853" xml:space="preserve">
<g transform="translate(1 1)">
	<polygon style="fill:#FCC309;" points="417.56,289.56 417.56,249.453 417.56,159.853 417.56,76.227 93.293,76.227 93.293,159.853
		93.293,249.453 93.293,289.56 	"/>
  <path style="fill:#FFDD09;" d="M160.707,289.56H351c3.413-14.507,17.067-25.6,33.28-25.6v-17.067V161.56v-17.067
		c-19.627,0-34.133-15.36-34.133-34.133H161.56c0,18.773-14.507,34.133-34.133,34.133v17.067v85.333v17.067
		C143.64,263.96,156.44,275.053,160.707,289.56"/>
  <g>
		<path style="fill:#54C9FD;" d="M298.093,187.16c0-23.893-18.773-42.667-42.667-42.667s-42.667,18.773-42.667,42.667
			s18.773,42.667,42.667,42.667S298.093,211.053,298.093,187.16"/>
    <path style="fill:#54C9FD;" d="M255.427,229.827c-33.28,0-59.733,26.453-59.733,59.733H315.16
			C315.16,257.133,288.707,229.827,255.427,229.827"/>
	</g>
  <g>
		<polygon style="fill:#1CD759;" points="67.693,391.96 443.16,391.96 443.16,289.56 67.693,289.56 		"/>
    <polygon style="fill:#1CD759;" points="426.093,400.493 426.093,332.227 477.293,332.227 451.693,383.427 477.293,434.627
			426.093,434.627 		"/>
	</g>
  <polygon style="fill:#15A143;" points="477.293,332.227 502.893,332.227 468.76,383.427 502.893,434.627 477.293,434.627
		451.693,383.427 	"/>
  <polygon style="fill:#1CD759;" points="84.76,366.36 84.76,434.627 33.56,434.627 59.16,383.427 33.56,332.227 84.76,332.227 	"/>
  <polygon style="fill:#FFFFFF;" points="33.56,434.627 7.96,434.627 42.093,383.427 7.96,332.227 33.56,332.227 59.16,383.427 	"/>
  <path d="M443.16,400.493H67.693c-5.12,0-8.533-3.413-8.533-8.533v-102.4c0-5.12,3.413-8.533,8.533-8.533H443.16
		c5.12,0,8.533,3.413,8.533,8.533v102.4C451.693,397.08,448.28,400.493,443.16,400.493z M76.227,383.427h358.4v-85.333h-358.4
		V383.427z"/>
  <path d="M84.76,443.16H7.96c-3.413,0-5.973-1.707-7.68-4.267s-1.707-5.973,0-8.533l31.573-46.933l-30.72-46.08
		c-1.707-2.56-1.707-5.973,0-8.533c0.853-3.413,3.413-5.12,6.827-5.12h59.733c5.12,0,8.533,3.413,8.533,8.533v51.2h8.533
		c5.12,0,8.533,3.413,8.533,8.533v42.667C93.293,439.747,89.88,443.16,84.76,443.16z M24.173,426.093h52.053v-25.6h-8.533
		c-5.12,0-8.533-3.413-8.533-8.533v-51.2H24.173l25.6,37.547c1.707,2.56,1.707,6.827,0,9.387L24.173,426.093z"/>
  <path d="M502.893,443.16h-76.8c-5.12,0-8.533-3.413-8.533-8.533V391.96c0-5.12,3.413-8.533,8.533-8.533h8.533v-51.2
		c0-5.12,3.413-8.533,8.533-8.533h59.733c3.413,0,5.973,1.707,7.68,4.267s1.707,5.973,0,8.533L479,383.427l30.72,46.08
		c1.707,2.56,1.707,5.973,0,8.533C508.013,440.6,506.307,443.16,502.893,443.16z M434.627,426.093h52.053l-25.6-37.547
		c-1.707-2.56-1.707-6.827,0-9.387l25.6-37.547h-34.987v51.2c0,5.12-3.413,8.533-8.533,8.533h-8.533V426.093z"/>
  <path d="M187.16,332.227h-34.133c-5.12,0-8.533-3.413-8.533-8.533s3.413-8.533,8.533-8.533h34.133c5.12,0,8.533,3.413,8.533,8.533
		S192.28,332.227,187.16,332.227z"/>
  <path d="M272.493,332.227h-51.2c-5.12,0-8.533-3.413-8.533-8.533s3.413-8.533,8.533-8.533h51.2c5.12,0,8.533,3.413,8.533,8.533
		S277.613,332.227,272.493,332.227z"/>
  <path d="M229.827,366.36h-76.8c-5.12,0-8.533-3.413-8.533-8.533s3.413-8.533,8.533-8.533h76.8c5.12,0,8.533,3.413,8.533,8.533
		S234.947,366.36,229.827,366.36z"/>
  <path d="M357.827,366.36H340.76c-5.12,0-8.533-3.413-8.533-8.533s3.413-8.533,8.533-8.533h17.067c5.12,0,8.533,3.413,8.533,8.533
		S362.947,366.36,357.827,366.36z"/>
  <path d="M306.627,366.36H263.96c-5.12,0-8.533-3.413-8.533-8.533s3.413-8.533,8.533-8.533h42.667c5.12,0,8.533,3.413,8.533,8.533
		S311.747,366.36,306.627,366.36z"/>
  <path d="M357.827,332.227H315.16c-5.12,0-8.533-3.413-8.533-8.533s3.413-8.533,8.533-8.533h42.667c5.12,0,8.533,3.413,8.533,8.533
		S362.947,332.227,357.827,332.227z"/>
  <path d="M255.427,238.36c-28.16,0-51.2-23.04-51.2-51.2s23.04-51.2,51.2-51.2s51.2,23.04,51.2,51.2S283.587,238.36,255.427,238.36z
		 M255.427,153.027c-18.773,0-34.133,15.36-34.133,34.133s15.36,34.133,34.133,34.133s34.133-15.36,34.133-34.133
		S274.2,153.027,255.427,153.027z"/>
  <path d="M315.16,298.093H195.693c-5.12,0-8.533-3.413-8.533-8.533c0-37.547,30.72-68.267,68.267-68.267s68.267,30.72,68.267,68.267
		C323.693,294.68,320.28,298.093,315.16,298.093z M205.08,281.027h100.693c-4.267-23.893-24.747-42.667-50.347-42.667
		S209.347,257.133,205.08,281.027z"/>
  <path d="M417.56,298.093H93.293c-5.12,0-8.533-3.413-8.533-8.533V76.227c0-5.12,3.413-8.533,8.533-8.533H417.56
		c5.12,0,8.533,3.413,8.533,8.533V289.56C426.093,294.68,422.68,298.093,417.56,298.093z M101.827,281.027h307.2V84.76h-307.2
		V281.027z"/>
  <path d="M350.147,298.093h-189.44c-4.267,0-7.68-2.56-8.533-6.827c-2.56-11.093-12.8-18.773-24.747-18.773
		c-5.12,0-8.533-3.413-8.533-8.533V144.493c0-5.12,3.413-8.533,8.533-8.533c14.507,0,25.6-11.093,25.6-25.6
		c0-5.12,3.413-8.533,8.533-8.533h187.733c5.12,0,8.533,3.413,8.533,8.533c0,14.507,11.093,25.6,25.6,25.6
		c5.12,0,8.533,3.413,8.533,8.533V263.96c0,5.12-3.413,8.533-8.533,8.533c-11.947,0-22.187,7.68-24.747,18.773
		C357.827,295.533,354.413,298.093,350.147,298.093z M166.68,281.027h177.493c5.12-12.8,17.067-22.187,30.72-24.747V152.173
		c-17.067-2.56-29.867-16.213-33.28-33.28H169.24c-3.413,17.067-16.213,30.72-33.28,33.28V256.28
		C149.613,259.693,160.707,268.227,166.68,281.027z"/>
</g>
</svg>